<svg id="svg" version="1.1" xmlns="http://www.w3.org/2000/svg" xmlns:xlink="http://www.w3.org/1999/xlink" width="400" height="418.2572614107884" viewBox="0, 0, 400,418.2572614107884"><g id="svgg"><path id="path0" d="M158.625 82.301 C 81.017 82.400,79.433 82.417,78.625 83.174 C 78.128 83.640,77.085 83.997,76.000 84.073 C 74.723 84.163,74.200 84.374,74.200 84.800 C 74.200 85.208,73.705 85.441,72.656 85.527 C 71.529 85.619,71.056 85.863,70.909 86.427 C 70.780 86.918,70.359 87.200,69.753 87.200 C 69.063 87.200,68.800 87.423,68.800 88.010 C 68.800 88.595,68.457 88.889,67.566 89.067 C 66.887 89.203,66.232 89.572,66.111 89.888 C 65.990 90.203,65.465 90.623,64.945 90.821 C 64.425 91.018,64.000 91.434,64.000 91.743 C 64.000 92.053,63.640 92.401,63.200 92.516 C 62.760 92.631,62.400 93.019,62.400 93.379 C 62.400 93.739,62.040 94.420,61.600 94.892 C 61.160 95.364,60.800 96.065,60.800 96.448 C 60.800 96.832,60.430 97.264,59.977 97.407 C 59.369 97.600,59.186 97.947,59.277 98.731 C 59.453 100.248,60.630 100.348,60.926 98.871 C 61.070 98.150,61.473 97.622,61.980 97.489 C 62.431 97.371,62.800 96.988,62.800 96.637 C 62.800 96.287,63.160 95.640,63.600 95.200 C 64.040 94.760,64.400 94.052,64.400 93.627 C 64.400 93.202,64.741 92.746,65.157 92.614 C 65.573 92.482,66.006 92.019,66.119 91.587 C 66.270 91.012,66.669 90.800,67.600 90.800 C 68.538 90.800,68.930 90.589,69.084 90.000 C 69.201 89.553,69.630 89.200,70.057 89.200 C 70.509 89.200,70.980 88.780,71.212 88.169 C 71.553 87.271,71.763 87.172,72.830 87.406 C 73.858 87.632,74.090 87.541,74.274 86.838 C 74.490 86.014,74.854 85.829,75.954 85.982 C 77.158 86.150,78.400 85.567,78.400 84.833 C 78.400 83.985,97.043 83.913,103.000 84.738 C 104.540 84.951,108.410 85.161,111.600 85.204 C 114.790 85.247,118.210 85.406,119.200 85.558 L 121.000 85.834 119.000 86.124 C 116.122 86.540,115.757 86.847,116.373 88.334 C 116.853 89.495,118.186 90.551,117.757 89.431 C 117.532 88.845,118.649 88.259,119.266 88.641 C 119.492 88.781,119.296 89.272,118.806 89.794 C 118.229 90.408,117.944 91.242,117.928 92.362 C 117.912 93.526,117.676 94.181,117.138 94.559 C 116.256 95.176,116.889 97.405,117.842 97.039 C 118.810 96.668,119.777 99.155,119.092 100.255 C 118.936 100.505,119.122 100.955,119.504 101.255 C 120.146 101.758,120.155 101.738,119.619 101.000 C 119.157 100.363,119.153 100.302,119.600 100.700 C 119.957 101.019,120.122 101.836,120.053 102.949 C 119.994 103.918,120.341 105.999,120.832 107.616 C 121.847 110.956,121.727 121.048,120.635 124.186 C 120.332 125.059,120.138 126.798,120.205 128.051 C 120.310 130.028,120.199 130.449,119.363 131.235 C 118.833 131.732,118.400 132.395,118.400 132.706 C 118.400 133.403,117.105 135.162,115.048 137.256 C 113.190 139.149,113.725 140.013,116.702 139.922 C 118.701 139.861,118.777 139.914,118.980 141.520 C 119.098 142.458,119.000 142.698,118.567 142.532 C 117.463 142.108,116.019 142.784,115.752 143.849 C 115.440 145.092,116.046 145.585,117.900 145.594 C 118.615 145.597,119.200 145.780,119.200 146.000 C 119.200 146.220,119.500 146.400,119.867 146.400 C 120.233 146.400,120.398 146.535,120.233 146.700 C 120.068 146.865,115.943 147.128,111.067 147.283 C 79.409 148.295,80.594 148.219,81.207 149.212 C 81.522 149.722,87.294 149.827,124.485 150.000 L 167.400 150.200 167.277 153.700 C 167.209 155.625,167.276 157.400,167.427 157.643 C 167.752 158.170,167.775 161.784,167.462 163.200 C 166.680 166.735,166.728 169.600,167.568 169.600 C 168.369 169.600,168.402 169.389,168.450 164.000 C 168.478 160.920,168.537 157.905,168.583 157.300 C 168.628 156.695,168.696 154.310,168.734 152.000 C 168.771 149.690,168.817 147.440,168.836 147.000 C 168.855 146.560,168.937 139.360,169.019 131.000 C 169.245 108.039,170.146 103.359,175.519 97.253 C 176.773 95.827,178.250 94.078,178.800 93.367 C 179.350 92.656,181.060 91.144,182.600 90.008 C 184.140 88.872,185.760 87.534,186.200 87.035 C 189.199 83.631,213.377 82.956,215.932 86.205 C 216.308 86.683,217.422 87.575,218.408 88.188 C 221.631 90.193,225.023 92.955,226.223 94.552 C 226.870 95.413,228.162 97.127,229.093 98.359 C 230.990 100.869,232.800 104.082,232.800 104.938 C 232.800 105.248,233.043 105.704,233.341 105.951 C 234.331 106.773,234.814 114.312,234.908 130.400 L 235.000 146.200 236.000 146.200 C 237.494 146.200,237.429 146.970,235.916 147.200 C 234.705 147.384,234.604 147.512,234.648 148.800 C 234.674 149.570,234.742 151.730,234.798 153.600 C 234.857 155.568,235.089 157.124,235.350 157.294 C 235.675 157.506,235.666 157.589,235.320 157.594 C 234.957 157.599,234.833 160.876,234.811 171.046 C 234.784 182.936,234.851 184.466,235.390 184.259 C 235.834 184.089,236.000 184.291,236.000 185.000 C 236.000 185.702,235.832 185.910,235.400 185.745 C 234.915 185.559,234.800 185.906,234.800 187.557 C 234.800 189.464,235.273 190.245,235.735 189.100 C 235.846 188.825,235.951 190.979,235.968 193.887 C 235.996 198.431,235.916 199.143,235.400 198.945 C 234.901 198.753,234.800 199.199,234.800 201.600 C 234.800 204.001,234.901 204.447,235.400 204.255 C 235.895 204.065,236.000 204.476,236.000 206.600 C 236.000 208.724,235.895 209.135,235.400 208.945 C 234.868 208.741,234.801 216.559,234.809 277.857 C 234.818 345.295,234.836 346.976,235.560 346.034 C 236.279 345.100,236.303 342.040,236.300 251.494 C 236.298 199.344,236.145 158.159,235.954 158.460 C 235.765 158.757,235.689 160.710,235.784 162.800 L 235.958 166.600 235.577 163.000 C 235.368 161.020,235.336 158.950,235.506 158.400 C 235.676 157.850,235.812 156.742,235.808 155.938 C 235.803 155.134,235.921 154.551,236.068 154.642 C 236.216 154.734,236.253 153.726,236.150 152.404 L 235.964 150.000 278.649 150.000 C 302.125 150.000,321.216 149.883,321.073 149.740 C 320.930 149.596,321.099 149.269,321.450 149.013 C 321.970 148.633,321.715 148.530,320.065 148.455 C 318.953 148.404,317.697 148.296,317.273 148.214 C 316.849 148.132,308.424 147.962,298.551 147.835 C 262.901 147.376,249.986 147.101,249.797 146.795 C 249.562 146.415,250.597 145.961,252.167 145.754 C 253.540 145.573,254.069 145.203,252.967 145.194 C 252.325 145.189,252.298 145.124,252.800 144.800 C 253.288 144.485,253.236 144.411,252.524 144.406 C 252.042 144.403,251.549 144.241,251.429 144.046 C 251.309 143.852,250.398 143.311,249.405 142.844 C 246.809 141.624,246.679 138.645,249.147 136.896 C 251.269 135.392,252.225 133.718,251.459 132.846 C 250.852 132.153,250.163 113.827,250.363 103.664 C 250.439 99.753,250.336 98.591,249.863 98.064 C 249.535 97.699,249.207 96.860,249.133 96.200 C 249.032 95.291,248.684 94.861,247.700 94.428 C 245.694 93.545,245.904 92.175,248.200 91.159 C 249.190 90.721,250.000 90.117,250.000 89.817 C 250.000 89.517,250.809 88.880,251.798 88.401 C 253.591 87.533,254.427 86.800,253.624 86.800 C 253.391 86.800,253.200 86.533,253.200 86.208 C 253.200 85.571,254.499 85.104,255.800 85.272 C 256.240 85.329,260.830 85.249,266.000 85.094 C 271.170 84.939,280.350 84.719,286.400 84.606 C 301.919 84.314,311.200 83.935,311.200 83.592 C 311.200 82.218,299.702 82.121,158.625 82.301 M317.104 83.180 C 316.409 83.999,316.415 84.000,320.404 84.000 C 322.602 84.000,324.400 83.897,324.400 83.771 C 324.400 82.308,318.266 81.810,317.104 83.180 M325.672 84.900 C 325.783 85.683,325.999 85.782,327.328 85.665 C 328.590 85.554,328.894 85.673,329.069 86.344 C 329.225 86.941,329.670 87.189,330.741 87.278 C 331.904 87.375,332.226 87.582,332.328 88.300 C 332.522 89.665,334.400 89.575,334.400 88.200 C 334.400 87.473,334.186 87.200,333.614 87.200 C 333.182 87.200,332.635 86.840,332.400 86.400 C 332.103 85.845,331.562 85.600,330.633 85.600 C 329.630 85.600,329.241 85.399,329.084 84.800 C 328.751 83.527,325.491 83.623,325.672 84.900 M336.000 89.684 C 336.000 90.026,336.360 90.401,336.800 90.516 C 337.279 90.641,337.600 91.062,337.600 91.563 C 337.600 92.123,337.855 92.400,338.372 92.400 C 338.868 92.400,339.190 92.722,339.272 93.300 C 339.425 94.376,340.530 94.506,340.729 93.472 C 340.820 93.000,340.576 92.666,340.035 92.525 C 339.576 92.405,339.200 92.052,339.200 91.741 C 339.200 91.430,338.885 91.064,338.500 90.928 C 338.115 90.792,337.395 90.316,336.900 89.871 C 336.165 89.209,336.000 89.175,336.000 89.684 M114.800 93.200 C 114.267 93.530,114.267 93.638,114.800 94.171 C 115.208 94.579,115.592 94.652,116.000 94.400 C 116.533 94.070,116.533 93.962,116.000 93.429 C 115.592 93.021,115.208 92.948,114.800 93.200 M340.800 96.400 C 340.800 96.850,341.067 97.200,341.410 97.200 C 341.745 97.200,342.191 97.650,342.400 98.200 C 342.762 99.153,344.400 99.671,344.400 98.833 C 344.400 98.012,343.881 97.200,343.357 97.200 C 343.051 97.200,342.800 96.840,342.800 96.400 C 342.800 95.813,342.533 95.600,341.800 95.600 C 341.067 95.600,340.800 95.813,340.800 96.400 M57.465 100.700 C 57.365 100.865,57.341 101.522,57.413 102.159 C 57.502 102.956,57.286 103.526,56.722 103.983 C 55.233 105.188,55.499 109.121,57.029 108.533 C 57.434 108.378,57.600 107.630,57.600 105.957 C 57.600 103.912,57.700 103.600,58.357 103.600 C 59.182 103.600,59.766 102.099,59.357 101.032 C 59.110 100.387,57.795 100.157,57.465 100.700 M344.312 101.100 C 344.061 102.067,344.362 102.800,345.010 102.800 C 345.770 102.800,346.097 102.135,345.799 101.196 C 345.487 100.213,344.557 100.153,344.312 101.100 M346.000 106.067 C 346.000 108.129,346.097 108.440,346.700 108.326 C 347.831 108.111,347.936 104.181,346.819 103.889 C 346.061 103.691,346.000 103.853,346.000 106.067 M347.600 115.600 C 347.600 121.410,347.777 122.232,348.773 121.033 C 349.382 120.299,349.284 111.323,348.656 110.317 C 347.763 108.888,347.600 109.703,347.600 115.600 M54.705 110.952 C 53.757 111.900,53.724 119.322,54.662 120.745 L 55.358 121.800 55.639 120.800 C 56.042 119.369,56.052 111.501,55.652 110.870 C 55.378 110.439,55.203 110.454,54.705 110.952 M55.835 123.544 C 55.387 124.269,55.966 127.786,56.611 128.257 C 56.972 128.521,57.297 129.336,57.334 130.069 C 57.381 131.028,57.651 131.510,58.300 131.795 C 58.976 132.091,59.200 132.524,59.200 133.532 C 59.200 134.538,59.400 134.927,60.000 135.084 C 60.443 135.200,60.800 135.630,60.800 136.047 C 60.800 136.518,61.082 136.800,61.553 136.800 C 61.970 136.800,62.400 137.157,62.516 137.600 C 62.631 138.040,63.012 138.400,63.363 138.400 C 63.713 138.400,64.000 138.656,64.000 138.969 C 64.000 139.759,65.991 142.053,66.437 141.777 C 66.638 141.653,66.977 142.013,67.191 142.576 C 67.421 143.181,67.893 143.600,68.343 143.600 C 68.770 143.600,69.199 143.953,69.316 144.400 C 69.476 145.013,69.862 145.200,70.963 145.200 C 72.133 145.200,72.400 145.348,72.400 146.000 C 72.400 147.144,75.011 147.165,75.310 146.023 C 75.570 145.029,75.321 144.800,73.980 144.800 C 73.230 144.800,72.829 144.552,72.684 144.000 C 72.541 143.455,72.138 143.200,71.418 143.200 C 70.334 143.200,67.600 140.951,67.600 140.060 C 67.600 139.807,67.406 139.600,67.169 139.600 C 66.609 139.600,64.400 137.391,64.400 136.831 C 64.400 136.594,64.040 136.400,63.600 136.400 C 63.069 136.400,62.800 136.133,62.800 135.608 C 62.800 135.096,62.446 134.726,61.800 134.564 C 60.987 134.360,60.800 134.067,60.800 132.999 C 60.800 132.223,60.564 131.595,60.222 131.464 C 59.904 131.342,59.524 130.603,59.378 129.821 C 59.184 128.789,58.904 128.400,58.355 128.400 C 57.692 128.400,57.600 128.082,57.600 125.800 C 57.600 123.291,56.701 122.142,55.835 123.544 M346.000 125.800 C 346.000 128.133,345.918 128.400,345.200 128.400 C 344.399 128.400,343.973 131.040,344.663 131.730 C 345.177 132.243,346.000 131.084,346.000 129.847 C 346.000 129.026,346.276 128.420,346.800 128.093 C 348.315 127.147,347.804 123.200,346.167 123.200 C 346.075 123.200,346.000 124.370,346.000 125.800 M342.589 133.249 C 342.427 133.988,342.006 134.578,341.558 134.695 C 341.141 134.804,340.800 135.211,340.800 135.600 C 340.800 135.989,340.440 136.401,340.000 136.516 C 339.560 136.631,339.200 137.000,339.200 137.336 C 339.200 137.671,338.840 138.060,338.400 138.200 C 337.960 138.340,337.600 138.729,337.600 139.064 C 337.600 139.400,337.240 139.769,336.800 139.884 C 336.360 139.999,336.000 140.347,336.000 140.657 C 336.000 140.966,335.550 141.391,335.000 141.600 C 334.450 141.809,334.000 142.255,334.000 142.590 C 334.000 142.954,333.637 143.202,333.100 143.206 C 331.835 143.215,331.041 143.809,331.321 144.537 C 331.667 145.439,333.690 145.174,334.195 144.160 C 334.421 143.706,334.815 143.405,335.069 143.490 C 335.324 143.575,335.650 143.274,335.793 142.822 C 335.938 142.366,336.398 142.000,336.827 142.000 C 337.379 142.000,337.600 141.722,337.600 141.028 C 337.600 140.327,337.851 140.017,338.500 139.918 C 338.995 139.843,339.350 139.545,339.289 139.256 C 339.227 138.967,339.542 138.636,339.989 138.519 C 340.435 138.402,340.800 138.054,340.800 137.745 C 340.800 137.436,341.250 136.978,341.800 136.727 C 342.350 136.477,342.800 136.097,342.800 135.883 C 342.800 135.669,343.149 135.191,343.576 134.821 C 344.002 134.451,344.286 133.800,344.206 133.374 C 344.126 132.948,344.047 132.465,344.031 132.300 C 343.943 131.438,342.825 132.173,342.589 133.249 M328.162 145.495 C 327.503 146.154,327.531 146.208,328.726 146.550 C 330.075 146.937,331.200 146.392,331.200 145.351 C 331.200 144.552,329.001 144.656,328.162 145.495 M75.898 146.700 C 75.351 147.797,75.892 148.205,78.049 148.318 C 80.327 148.438,81.772 147.259,80.123 146.626 C 79.260 146.294,76.072 146.350,75.898 146.700 M247.400 146.800 C 247.541 147.028,247.196 147.200,246.600 147.200 C 246.004 147.200,245.659 147.028,245.800 146.800 C 245.936 146.580,246.296 146.400,246.600 146.400 C 246.904 146.400,247.264 146.580,247.400 146.800 M323.900 146.632 C 322.903 147.633,323.627 148.435,325.442 148.342 C 327.049 148.258,328.111 147.578,327.534 147.001 C 327.185 146.651,324.184 146.347,323.900 146.632 M235.893 171.689 C 235.809 172.630,235.739 171.960,235.737 170.200 C 235.736 168.440,235.805 167.670,235.891 168.489 C 235.977 169.309,235.978 170.749,235.893 171.689 M167.632 172.739 C 167.162 173.618,167.054 175.320,167.443 175.710 C 167.760 176.026,167.875 180.771,167.562 180.577 C 167.059 180.265,167.184 342.714,167.688 343.886 C 168.103 344.852,168.205 344.254,168.454 339.400 C 168.723 334.163,168.469 172.358,168.192 172.066 C 168.122 171.992,167.870 172.295,167.632 172.739 M235.635 180.414 C 235.387 182.992,235.297 183.323,235.259 181.800 C 235.210 179.842,235.585 176.652,235.835 176.901 C 235.904 176.971,235.814 178.551,235.635 180.414 M235.487 202.700 C 235.395 203.305,235.320 202.810,235.320 201.600 C 235.320 200.390,235.395 199.895,235.487 200.500 C 235.578 201.105,235.578 202.095,235.487 202.700 M235.946 223.567 C 235.976 226.078,235.932 228.058,235.848 227.967 C 235.765 227.875,235.610 223.750,235.504 218.800 C 235.380 213.052,235.415 211.462,235.601 214.400 C 235.761 216.930,235.916 221.055,235.946 223.567 M235.893 254.489 C 235.809 255.430,235.739 254.760,235.737 253.000 C 235.736 251.240,235.805 250.470,235.891 251.289 C 235.977 252.109,235.978 253.549,235.893 254.489 M235.890 261.693 C 235.801 262.412,235.726 261.920,235.724 260.600 C 235.722 259.280,235.795 258.692,235.886 259.293 C 235.977 259.894,235.979 260.974,235.890 261.693 M235.895 278.887 C 235.814 280.049,235.747 279.200,235.746 277.000 C 235.745 274.800,235.811 273.849,235.893 274.887 C 235.976 275.924,235.976 277.724,235.895 278.887 M168.628 349.300 C 168.459 350.109,168.585 352.449,168.810 352.700 C 168.860 352.755,168.923 353.023,168.950 353.295 C 168.978 353.567,169.315 353.850,169.700 353.924 C 170.313 354.042,170.400 353.709,170.400 351.229 C 170.400 348.285,169.128 346.900,168.628 349.300 M232.990 348.816 C 232.833 349.070,232.826 350.339,232.973 351.638 C 233.221 353.833,233.182 354.000,232.427 354.000 C 231.573 354.000,231.007 355.304,231.270 356.668 C 231.576 358.255,232.992 357.515,233.123 355.700 C 233.206 354.554,233.431 354.000,233.815 354.000 C 235.046 354.000,235.163 348.714,233.937 348.481 C 233.573 348.412,233.147 348.563,232.990 348.816 M170.558 354.566 C 170.144 355.645,170.580 357.325,171.300 357.429 C 171.876 357.511,172.000 357.217,172.000 355.765 C 172.000 353.990,171.074 353.221,170.558 354.566 M229.600 359.010 C 229.600 359.738,229.347 360.141,228.800 360.284 C 228.340 360.404,228.000 360.830,228.000 361.284 C 228.000 361.738,227.660 362.164,227.200 362.284 C 226.603 362.440,226.400 362.830,226.400 363.819 C 226.400 364.889,226.227 365.169,225.500 365.272 C 224.922 365.354,224.554 365.722,224.472 366.300 C 224.395 366.845,224.066 367.200,223.639 367.200 C 222.722 367.200,222.403 367.542,222.670 368.239 C 222.988 369.068,224.308 368.920,224.800 368.000 C 225.035 367.560,225.492 367.200,225.814 367.200 C 226.136 367.200,226.400 366.840,226.400 366.400 C 226.400 365.956,226.667 365.600,227.000 365.600 C 227.330 365.600,227.601 365.375,227.602 365.100 C 227.603 364.825,228.143 364.025,228.802 363.322 C 229.461 362.619,230.000 361.785,230.000 361.468 C 230.000 361.152,230.373 360.796,230.829 360.676 C 232.031 360.362,231.764 358.252,230.500 358.072 C 229.760 357.967,229.600 358.134,229.600 359.010 M172.000 359.563 C 172.000 360.528,172.136 360.690,172.800 360.516 C 173.434 360.350,173.600 360.504,173.600 361.257 C 173.600 361.780,173.960 362.432,174.400 362.707 C 174.840 362.982,175.200 363.475,175.200 363.803 C 175.200 364.132,175.380 364.400,175.600 364.400 C 175.820 364.400,176.000 364.670,176.000 365.000 C 176.000 365.330,176.281 365.600,176.624 365.600 C 176.967 365.600,177.136 365.780,177.000 366.000 C 176.864 366.220,176.954 366.400,177.200 366.400 C 177.446 366.400,177.544 366.567,177.418 366.771 C 177.291 366.976,177.596 367.201,178.094 367.272 C 178.649 367.351,178.981 367.659,178.950 368.069 C 178.919 368.482,179.109 368.656,179.450 368.526 C 179.752 368.409,180.000 368.522,180.000 368.775 C 180.000 369.028,180.225 369.206,180.500 369.170 C 181.615 369.025,182.000 369.239,182.000 370.000 C 182.000 370.590,182.267 370.800,183.018 370.800 C 183.765 370.800,184.004 370.986,183.918 371.500 C 183.804 372.177,183.974 372.252,185.853 372.354 C 186.323 372.379,186.791 372.721,186.893 373.114 C 187.077 373.817,189.565 374.316,190.379 373.813 C 191.334 373.223,190.269 372.000,188.800 372.000 C 187.630 372.000,187.247 371.821,187.084 371.200 C 186.924 370.587,186.538 370.400,185.437 370.400 C 184.267 370.400,184.000 370.252,184.000 369.600 C 184.000 369.055,183.733 368.800,183.163 368.800 C 182.662 368.800,182.241 368.479,182.116 368.000 C 181.958 367.397,181.570 367.200,180.543 367.200 C 179.457 367.200,179.103 366.997,178.800 366.200 C 178.591 365.650,178.145 365.200,177.810 365.200 C 177.474 365.200,177.200 364.951,177.200 364.646 C 177.200 364.341,176.773 363.812,176.251 363.470 C 175.532 362.999,175.350 362.594,175.502 361.800 C 175.658 360.986,175.520 360.704,174.885 360.538 C 174.436 360.421,173.959 359.891,173.826 359.362 C 173.458 357.894,172.000 358.054,172.000 359.563 M219.318 369.590 C 219.184 370.104,218.639 370.469,217.756 370.635 C 216.988 370.779,216.400 371.130,216.400 371.445 C 216.400 371.836,215.869 372.000,214.600 372.000 C 212.945 372.000,212.800 372.081,212.800 373.003 C 212.800 373.936,212.927 374.002,214.600 373.938 C 216.056 373.883,216.400 373.730,216.400 373.135 C 216.400 372.562,216.708 372.400,217.797 372.400 C 218.760 372.400,219.348 372.152,219.693 371.600 C 219.968 371.160,220.509 370.800,220.896 370.800 C 221.380 370.800,221.600 370.488,221.600 369.800 C 221.600 368.505,219.649 368.325,219.318 369.590 M192.727 373.871 C 192.356 373.968,192.080 374.397,192.112 374.824 C 192.199 375.985,197.000 376.000,197.087 374.839 C 197.167 373.780,194.941 373.286,192.727 373.871 M206.700 373.876 C 204.583 374.429,206.009 375.600,208.800 375.600 C 211.281 375.600,211.600 375.514,211.600 374.843 C 211.600 373.710,209.170 373.230,206.700 373.876 " stroke="none" fill="#9456c0" fill-rule="evenodd"></path><path id="path1" d="M310.702 82.862 C 310.976 83.136,311.200 83.478,311.200 83.623 C 311.200 83.937,301.476 84.322,286.400 84.606 C 280.350 84.719,271.170 84.939,266.000 85.094 C 260.830 85.249,256.240 85.329,255.800 85.272 C 254.499 85.104,253.200 85.571,253.200 86.208 C 253.200 86.533,253.391 86.800,253.624 86.800 C 254.427 86.800,253.591 87.533,251.798 88.401 C 250.809 88.880,250.000 89.517,250.000 89.817 C 250.000 90.117,249.190 90.721,248.200 91.159 C 245.904 92.175,245.694 93.545,247.700 94.428 C 248.684 94.861,249.032 95.291,249.133 96.200 C 249.207 96.860,249.535 97.699,249.863 98.064 C 250.336 98.591,250.439 99.753,250.363 103.664 C 250.163 113.827,250.852 132.153,251.459 132.846 C 252.225 133.718,251.269 135.392,249.147 136.896 C 246.679 138.645,246.809 141.624,249.405 142.844 C 250.398 143.311,251.309 143.852,251.429 144.046 C 251.549 144.241,252.042 144.403,252.524 144.406 C 253.236 144.411,253.288 144.485,252.800 144.800 C 252.298 145.124,252.325 145.189,252.967 145.194 C 254.069 145.203,253.540 145.573,252.167 145.754 C 250.597 145.961,249.562 146.415,249.797 146.795 C 249.986 147.101,262.901 147.376,298.551 147.835 C 308.424 147.962,316.849 148.132,317.273 148.214 C 317.697 148.296,318.953 148.404,320.065 148.455 C 321.846 148.536,322.001 148.610,321.367 149.073 C 320.971 149.363,320.839 149.600,321.075 149.600 C 321.310 149.600,321.726 149.330,322.000 149.000 C 322.274 148.670,322.733 148.400,323.021 148.400 C 323.309 148.400,323.602 147.995,323.672 147.500 C 323.791 146.661,323.976 146.606,326.400 146.692 C 327.947 146.747,328.697 146.657,328.251 146.470 C 327.004 145.946,328.564 144.685,330.219 144.878 C 331.194 144.992,331.457 144.893,331.296 144.474 C 331.039 143.802,331.875 143.214,333.100 143.206 C 333.637 143.202,334.000 142.954,334.000 142.590 C 334.000 142.255,334.450 141.809,335.000 141.600 C 335.550 141.391,336.000 140.945,336.000 140.610 C 336.000 140.274,336.287 140.000,336.637 140.000 C 336.988 140.000,337.367 139.646,337.481 139.213 C 337.594 138.781,338.008 138.325,338.400 138.200 C 338.792 138.075,339.206 137.619,339.319 137.187 C 339.433 136.754,339.812 136.400,340.163 136.400 C 340.520 136.400,340.800 136.069,340.800 135.647 C 340.800 135.232,341.141 134.804,341.558 134.695 C 342.006 134.578,342.427 133.988,342.589 133.249 C 342.846 132.081,344.000 131.441,344.000 132.467 C 344.000 132.723,344.122 132.811,344.271 132.662 C 344.420 132.513,344.502 131.493,344.452 130.395 C 344.371 128.621,344.451 128.400,345.180 128.400 C 345.923 128.400,346.000 128.154,346.000 125.773 C 346.000 123.328,346.055 123.164,346.800 123.400 C 347.581 123.648,347.600 123.472,347.600 115.864 C 347.600 108.272,347.580 108.080,346.800 108.284 C 346.052 108.480,346.000 108.296,346.000 105.484 C 346.000 102.672,345.948 102.489,345.200 102.684 C 344.347 102.907,344.270 102.699,344.390 100.500 C 344.449 99.423,344.317 99.200,343.621 99.200 C 343.092 99.200,342.639 98.829,342.400 98.200 C 342.191 97.650,341.729 97.200,341.374 97.200 C 340.851 97.200,340.771 96.898,340.952 95.607 C 341.156 94.144,341.102 94.022,340.289 94.107 C 339.639 94.175,339.368 93.960,339.273 93.300 C 339.191 92.722,338.868 92.400,338.372 92.400 C 337.855 92.400,337.600 92.123,337.600 91.563 C 337.600 91.062,337.279 90.641,336.800 90.516 C 336.346 90.397,336.000 89.970,336.000 89.529 C 336.000 88.836,335.807 88.780,334.233 89.016 C 332.592 89.262,332.457 89.214,332.333 88.340 C 332.225 87.577,331.925 87.377,330.741 87.278 C 329.670 87.189,329.225 86.941,329.069 86.344 C 328.894 85.673,328.590 85.554,327.328 85.665 C 325.999 85.782,325.783 85.683,325.672 84.900 C 325.548 84.026,325.410 84.000,320.944 84.000 C 316.761 84.000,316.400 83.943,316.971 83.371 C 317.317 83.026,317.600 82.688,317.600 82.621 C 317.600 82.554,315.936 82.469,313.902 82.432 C 310.953 82.378,310.305 82.465,310.702 82.862 M222.665 91.745 C 223.801 92.771,225.310 94.644,226.019 95.906 C 226.728 97.168,227.718 98.614,228.219 99.120 C 229.228 100.138,230.800 103.242,230.800 104.216 C 230.800 104.559,231.059 105.340,231.375 105.952 C 231.750 106.678,232.034 108.999,232.190 112.632 C 232.916 129.463,233.136 136.180,232.970 136.448 C 232.868 136.613,232.959 137.526,233.172 138.477 C 233.414 139.556,233.421 140.805,233.190 141.803 C 232.825 143.381,233.495 145.098,234.624 145.475 C 235.842 145.882,234.579 106.979,233.341 105.951 C 233.043 105.704,232.800 105.248,232.800 104.938 C 232.800 104.082,230.990 100.869,229.093 98.359 C 228.162 97.127,226.866 95.407,226.213 94.538 C 225.147 93.118,222.065 90.454,221.009 90.039 C 220.784 89.951,221.529 90.718,222.665 91.745 M236.087 146.462 C 236.295 147.085,237.190 147.194,237.221 146.600 C 237.233 146.380,236.942 146.138,236.575 146.062 C 236.158 145.975,235.975 146.125,236.087 146.462 M245.800 146.800 C 245.659 147.028,246.004 147.200,246.600 147.200 C 247.196 147.200,247.541 147.028,247.400 146.800 C 247.264 146.580,246.904 146.400,246.600 146.400 C 246.296 146.400,245.936 146.580,245.800 146.800 " stroke="none" fill="#4170b6" fill-rule="evenodd"></path><path id="path2" d="M235.808 155.920 C 235.812 156.734,235.676 157.850,235.506 158.400 C 235.336 158.950,235.361 161.020,235.561 163.000 L 235.926 166.600 235.925 162.600 C 235.924 160.400,236.051 157.819,236.207 156.865 C 236.363 155.911,236.335 154.975,236.145 154.786 C 235.952 154.592,235.803 155.090,235.808 155.920 M167.200 160.400 C 167.200 162.013,167.308 163.225,167.440 163.093 C 167.763 162.771,167.775 158.041,167.454 157.720 C 167.314 157.581,167.200 158.787,167.200 160.400 M171.744 158.502 C 170.413 159.024,169.756 159.098,169.178 158.788 C 168.425 158.385,168.400 158.550,168.400 163.986 C 168.400 169.075,168.334 169.600,167.697 169.600 C 167.108 169.600,167.018 169.896,167.139 171.419 C 167.269 173.053,167.339 173.165,167.829 172.519 C 168.291 171.910,168.387 177.707,168.455 210.400 C 168.580 270.432,168.696 288.429,168.958 288.691 C 169.167 288.901,169.443 278.326,169.314 275.037 C 169.289 274.398,169.523 273.620,169.834 273.309 C 170.322 272.821,170.402 273.726,170.411 279.871 C 170.417 283.792,170.506 289.610,170.609 292.800 C 170.712 295.990,170.882 304.540,170.988 311.800 C 171.217 327.616,171.150 327.209,173.196 325.204 C 174.037 324.379,174.998 323.177,175.332 322.532 C 176.091 321.063,179.376 318.000,180.191 318.000 C 180.526 318.000,180.800 317.846,180.800 317.658 C 180.800 317.471,182.173 316.372,183.852 315.216 C 197.523 305.807,219.420 309.953,228.800 323.726 C 229.875 325.304,231.324 325.696,231.772 324.530 C 232.043 323.822,232.159 318.060,232.836 271.613 C 233.068 255.670,233.415 242.350,233.606 242.013 C 233.831 241.617,233.969 242.390,233.997 244.200 C 234.281 262.768,234.676 257.857,234.734 235.057 C 234.792 211.824,234.871 208.742,235.400 208.945 C 235.895 209.135,236.000 208.724,236.000 206.600 C 236.000 204.476,235.895 204.065,235.400 204.255 C 234.901 204.447,234.800 204.001,234.800 201.600 C 234.800 199.199,234.901 198.753,235.400 198.945 C 235.916 199.143,235.996 198.431,235.968 193.887 C 235.951 190.979,235.846 188.825,235.735 189.100 C 235.273 190.245,234.800 189.464,234.800 187.557 C 234.800 185.906,234.915 185.559,235.400 185.745 C 235.832 185.910,236.000 185.702,236.000 185.000 C 236.000 184.298,235.832 184.090,235.400 184.255 C 234.874 184.457,234.800 182.896,234.800 171.655 C 234.800 160.407,234.726 158.854,234.199 159.056 C 233.869 159.182,232.834 158.952,231.899 158.543 C 229.349 157.428,174.578 157.390,171.744 158.502 M235.706 172.000 C 235.722 174.750,235.629 178.530,235.500 180.400 C 235.370 182.270,235.335 183.170,235.421 182.400 C 235.507 181.630,235.761 179.650,235.985 178.000 C 236.243 176.091,236.261 173.545,236.034 171.000 L 235.677 167.000 235.706 172.000 M167.200 177.910 C 167.200 179.253,167.335 180.436,167.500 180.539 C 167.854 180.758,167.799 176.066,167.443 175.710 C 167.310 175.576,167.200 176.566,167.200 177.910 M167.314 184.200 C 167.317 185.300,167.395 185.703,167.487 185.095 C 167.579 184.486,167.577 183.586,167.482 183.095 C 167.387 182.603,167.311 183.100,167.314 184.200 M167.344 190.800 C 167.344 192.890,167.412 193.745,167.494 192.700 C 167.576 191.655,167.576 189.945,167.494 188.900 C 167.412 187.855,167.344 188.710,167.344 190.800 M235.320 201.600 C 235.320 202.810,235.395 203.305,235.487 202.700 C 235.578 202.095,235.578 201.105,235.487 200.500 C 235.395 199.895,235.320 200.390,235.320 201.600 M167.314 205.800 C 167.317 206.900,167.395 207.303,167.487 206.695 C 167.579 206.086,167.577 205.186,167.482 204.695 C 167.387 204.203,167.311 204.700,167.314 205.800 M235.503 217.000 C 235.619 220.960,235.850 229.870,236.016 236.800 C 236.311 249.091,236.313 249.028,236.113 234.200 C 236.001 225.840,235.770 216.930,235.600 214.400 C 235.367 210.917,235.343 211.548,235.503 217.000 M233.476 238.300 C 233.375 238.685,233.293 238.370,233.293 237.600 C 233.293 236.830,233.375 236.515,233.476 236.900 C 233.576 237.285,233.576 237.915,233.476 238.300 M235.737 253.000 C 235.739 254.760,235.809 255.430,235.893 254.489 C 235.978 253.549,235.977 252.109,235.891 251.289 C 235.805 250.470,235.736 251.240,235.737 253.000 M235.920 265.400 C 236.025 269.360,236.176 272.675,236.256 272.767 C 236.508 273.058,236.318 263.505,236.017 260.800 C 235.858 259.370,235.814 261.440,235.920 265.400 M234.562 267.800 C 234.562 271.320,234.624 272.706,234.698 270.881 C 234.772 269.056,234.772 266.176,234.697 264.481 C 234.622 262.786,234.561 264.280,234.562 267.800 M169.994 271.493 C 169.566 272.159,169.553 272.157,169.770 271.467 C 169.896 271.064,170.030 270.074,170.067 269.267 L 170.134 267.800 170.291 269.293 C 170.377 270.114,170.243 271.104,169.994 271.493 M167.314 274.600 C 167.317 275.700,167.395 276.103,167.487 275.495 C 167.579 274.886,167.577 273.986,167.482 273.495 C 167.387 273.003,167.311 273.500,167.314 274.600 M235.746 277.000 C 235.747 279.200,235.814 280.049,235.895 278.887 C 235.976 277.724,235.976 275.924,235.893 274.887 C 235.811 273.849,235.745 274.800,235.746 277.000 M236.153 289.000 C 236.153 291.640,236.218 292.668,236.297 291.284 C 236.375 289.901,236.374 287.741,236.295 286.484 C 236.216 285.228,236.152 286.360,236.153 289.000 M167.334 304.400 C 167.334 306.050,167.405 306.725,167.491 305.900 C 167.578 305.075,167.578 303.725,167.491 302.900 C 167.405 302.075,167.334 302.750,167.334 304.400 M168.524 304.600 C 168.526 305.920,168.601 306.412,168.690 305.693 C 168.779 304.974,168.777 303.894,168.686 303.293 C 168.595 302.692,168.522 303.280,168.524 304.600 " stroke="none" fill="#f2464f" fill-rule="evenodd"></path><path id="path3" d="M81.200 84.720 C 82.303 85.661,82.218 85.706,79.400 85.672 C 77.795 85.653,76.739 85.978,77.005 86.409 C 77.317 86.913,75.855 87.600,74.471 87.600 C 73.591 87.600,73.303 87.779,73.344 88.300 C 73.389 88.860,73.024 89.024,71.521 89.121 C 70.253 89.203,69.702 89.399,69.827 89.725 C 70.065 90.346,67.837 92.800,67.037 92.800 C 66.702 92.800,66.235 93.160,66.000 93.600 C 65.765 94.040,65.308 94.400,64.986 94.400 C 64.205 94.400,62.800 95.838,62.800 96.637 C 62.800 96.988,62.413 97.376,61.941 97.500 C 61.149 97.707,61.135 97.764,61.765 98.224 C 62.200 98.542,62.294 98.818,62.024 98.985 C 61.791 99.129,61.600 99.057,61.600 98.824 C 61.600 98.591,61.420 98.400,61.200 98.400 C 60.980 98.400,60.800 98.781,60.800 99.247 C 60.800 99.911,60.618 100.046,59.955 99.872 C 59.211 99.678,59.137 99.785,59.333 100.766 C 59.688 102.542,59.229 103.699,58.244 103.510 C 57.450 103.357,57.408 103.488,57.538 105.726 C 57.677 108.122,57.151 109.189,56.213 108.411 C 55.931 108.177,55.800 110.511,55.800 115.759 L 55.800 123.450 56.700 123.278 C 57.473 123.131,57.600 123.278,57.600 124.316 C 57.600 125.315,57.735 125.490,58.374 125.323 C 59.232 125.098,59.591 126.390,59.492 129.347 C 59.457 130.387,59.663 131.057,60.120 131.391 C 60.494 131.664,60.800 132.256,60.800 132.707 C 60.800 133.336,60.990 133.475,61.624 133.310 C 62.229 133.151,62.506 133.320,62.670 133.947 C 62.798 134.437,63.214 134.800,63.647 134.800 C 64.137 134.800,64.400 135.083,64.400 135.613 C 64.400 136.059,64.659 136.524,64.976 136.646 C 65.292 136.767,65.669 137.404,65.814 138.062 C 65.995 138.888,66.256 139.188,66.659 139.033 C 66.979 138.910,67.137 138.978,67.010 139.184 C 66.882 139.391,67.413 139.679,68.189 139.824 C 68.965 139.970,69.600 140.244,69.600 140.434 C 69.600 140.624,70.176 141.077,70.880 141.442 C 71.585 141.806,72.408 142.350,72.709 142.652 C 73.010 142.953,73.514 143.200,73.829 143.200 C 74.143 143.200,74.400 143.537,74.400 143.950 C 74.400 144.470,74.783 144.777,75.649 144.950 C 76.633 145.147,76.804 145.313,76.455 145.733 C 75.895 146.408,75.455 146.379,85.979 146.376 C 95.656 146.374,98.055 146.592,97.729 147.441 C 97.598 147.782,97.775 148.000,98.181 148.000 C 98.547 148.000,98.765 147.865,98.663 147.700 C 98.562 147.535,102.992 147.331,108.506 147.248 C 114.021 147.164,118.998 146.954,119.566 146.782 C 120.208 146.588,120.334 146.456,119.900 146.434 C 119.515 146.415,119.200 146.220,119.200 146.000 C 119.200 145.780,118.615 145.597,117.900 145.594 C 116.046 145.585,115.440 145.092,115.752 143.849 C 116.019 142.784,117.463 142.108,118.567 142.532 C 119.000 142.698,119.098 142.458,118.980 141.520 C 118.777 139.914,118.701 139.861,116.702 139.922 C 113.725 140.013,113.190 139.149,115.048 137.256 C 117.105 135.162,118.400 133.403,118.400 132.706 C 118.400 132.395,118.833 131.732,119.363 131.235 C 120.199 130.449,120.310 130.028,120.205 128.051 C 120.138 126.798,120.332 125.059,120.635 124.186 C 121.727 121.048,121.847 110.956,120.832 107.616 C 120.341 105.999,119.994 103.918,120.053 102.949 C 120.122 101.836,119.957 101.019,119.600 100.700 C 119.153 100.302,119.157 100.363,119.619 101.000 C 120.155 101.738,120.146 101.758,119.504 101.255 C 119.122 100.955,118.936 100.505,119.092 100.255 C 119.777 99.155,118.810 96.668,117.842 97.039 C 116.889 97.405,116.256 95.176,117.138 94.559 C 117.676 94.181,117.912 93.526,117.928 92.362 C 117.944 91.242,118.229 90.408,118.806 89.794 C 119.296 89.272,119.492 88.781,119.266 88.641 C 118.649 88.259,117.532 88.845,117.757 89.431 C 118.181 90.536,116.857 89.503,116.383 88.358 C 115.769 86.878,115.896 86.759,118.707 86.182 L 121.000 85.712 118.000 85.465 C 109.000 84.726,93.267 84.471,89.000 84.996 C 83.706 85.647,81.224 85.502,83.300 84.665 C 83.575 84.554,83.320 84.449,82.733 84.432 C 82.146 84.414,81.336 84.280,80.933 84.134 C 80.421 83.948,80.502 84.124,81.200 84.720 M116.000 94.400 C 115.592 94.652,115.208 94.579,114.800 94.171 C 114.267 93.638,114.267 93.530,114.800 93.200 C 115.208 92.948,115.592 93.021,116.000 93.429 C 116.533 93.962,116.533 94.070,116.000 94.400 M57.200 122.224 C 57.200 122.541,57.020 122.800,56.800 122.800 C 56.580 122.800,56.400 122.429,56.400 121.976 C 56.400 121.523,56.580 121.264,56.800 121.400 C 57.020 121.536,57.200 121.907,57.200 122.224 M172.851 149.948 C 172.098 150.718,171.391 152.094,170.962 153.620 C 170.396 155.640,170.150 156.028,169.539 155.868 C 168.916 155.705,168.800 155.914,168.800 157.195 C 168.800 159.067,169.502 159.421,171.522 158.569 C 174.124 157.473,228.124 157.364,231.344 158.448 C 234.065 159.365,234.800 159.230,234.800 157.813 C 234.800 157.012,234.600 156.800,233.846 156.800 C 232.695 156.800,231.600 154.802,231.600 152.702 C 231.600 150.094,230.927 149.869,222.890 149.784 C 218.991 149.743,209.320 149.556,201.400 149.369 C 193.480 149.182,185.920 149.092,184.600 149.168 C 180.214 149.423,177.819 149.391,175.927 149.052 C 174.162 148.737,173.984 148.788,172.851 149.948 M233.293 237.600 C 233.293 238.370,233.375 238.685,233.476 238.300 C 233.576 237.915,233.576 237.285,233.476 236.900 C 233.375 236.515,233.293 236.830,233.293 237.600 M233.444 242.300 C 233.328 242.685,233.049 255.870,232.824 271.600 C 232.158 318.167,232.046 323.815,231.774 324.524 C 231.324 325.696,229.877 325.307,228.800 323.726 C 219.420 309.953,197.523 305.807,183.852 315.216 C 182.173 316.372,180.800 317.471,180.800 317.658 C 180.800 317.846,180.526 318.000,180.191 318.000 C 179.376 318.000,176.091 321.063,175.332 322.532 C 174.998 323.177,174.037 324.379,173.196 325.204 C 171.150 327.209,171.217 327.616,170.988 311.800 C 170.882 304.540,170.712 295.990,170.609 292.800 C 170.506 289.610,170.417 283.792,170.411 279.871 C 170.402 273.927,170.311 272.832,169.866 273.277 C 169.572 273.570,169.333 274.438,169.334 275.205 C 169.335 275.972,169.215 284.430,169.067 294.000 C 168.654 320.675,168.444 349.457,168.667 348.900 C 169.222 347.512,170.400 348.405,170.400 350.214 C 170.400 351.871,170.466 351.993,171.159 351.622 C 172.155 351.089,172.403 352.071,172.188 355.700 C 172.043 358.163,172.097 358.400,172.807 358.400 C 173.295 358.400,173.675 358.758,173.826 359.362 C 173.959 359.891,174.400 360.411,174.805 360.517 C 175.300 360.647,175.585 361.153,175.671 362.055 C 175.748 362.856,175.999 363.361,176.293 363.302 C 176.564 363.249,176.894 363.637,177.027 364.165 C 177.267 365.122,178.196 365.584,179.900 365.595 C 180.431 365.598,180.800 365.846,180.800 366.200 C 180.800 366.530,180.984 366.800,181.210 366.800 C 181.435 366.800,181.791 367.250,182.000 367.800 C 182.233 368.412,182.694 368.800,183.190 368.800 C 183.733 368.800,184.000 369.063,184.000 369.600 C 184.000 370.252,184.267 370.400,185.437 370.400 C 186.538 370.400,186.924 370.587,187.084 371.200 C 187.267 371.898,187.632 372.001,189.947 372.006 C 193.018 372.013,194.017 372.416,193.251 373.338 C 192.833 373.843,192.883 373.903,193.572 373.723 C 195.033 373.341,197.239 373.963,197.113 374.721 C 197.013 375.321,197.524 375.413,201.500 375.513 C 205.762 375.620,206.000 375.584,206.000 374.831 C 206.000 373.939,207.921 373.380,209.961 373.680 C 210.835 373.808,211.064 373.711,210.900 373.284 C 210.567 372.416,211.577 372.013,214.100 372.006 C 215.793 372.002,216.400 371.853,216.400 371.445 C 216.400 371.130,216.988 370.779,217.756 370.635 C 218.666 370.464,219.183 370.107,219.329 369.550 C 219.516 368.835,219.777 368.746,221.207 368.911 C 222.696 369.083,222.847 369.023,222.666 368.329 C 222.523 367.785,222.733 367.453,223.377 367.209 C 223.880 367.018,224.388 366.488,224.508 366.031 C 224.641 365.523,225.051 365.200,225.563 365.200 C 226.247 365.200,226.400 364.954,226.400 363.847 C 226.400 362.830,226.599 362.441,227.200 362.284 C 227.660 362.164,228.000 361.738,228.000 361.284 C 228.000 360.830,228.340 360.404,228.800 360.284 C 229.436 360.118,229.600 359.738,229.600 358.437 C 229.600 356.666,230.394 356.197,231.186 357.500 C 231.530 358.067,231.564 357.991,231.362 357.100 C 231.010 355.542,231.480 354.000,232.308 354.000 C 232.928 354.000,233.007 353.415,233.068 348.365 C 233.135 342.797,233.317 341.694,233.987 342.779 C 234.222 343.159,234.425 342.711,234.626 341.368 C 234.971 339.073,234.583 250.219,234.225 249.641 C 234.093 249.427,233.976 247.530,233.964 245.426 C 233.943 241.604,233.840 240.982,233.444 242.300 M170.067 269.267 C 170.030 270.074,169.896 271.064,169.770 271.467 C 169.553 272.157,169.566 272.159,169.994 271.493 C 170.243 271.104,170.377 270.114,170.291 269.293 L 170.134 267.800 170.067 269.267 " stroke="none" fill="#a60e66" fill-rule="evenodd"></path><path id="path4" d="M78.472 84.882 C 78.599 85.757,78.881 85.826,81.500 85.627 C 82.608 85.542,80.548 84.000,79.328 84.000 C 78.542 84.000,78.370 84.177,78.472 84.882 M84.889 84.623 C 84.400 84.965,84.000 85.061,84.000 84.835 C 84.000 84.610,83.730 84.529,83.400 84.655 C 82.030 85.181,82.955 85.588,85.100 85.404 C 86.365 85.295,88.515 85.130,89.877 85.036 C 94.345 84.728,94.285 84.026,89.789 84.012 C 86.791 84.003,85.554 84.157,84.889 84.623 M194.498 84.393 C 190.637 84.735,186.840 85.831,186.506 86.700 C 186.399 86.979,184.847 88.301,183.056 89.638 C 181.265 90.976,179.350 92.653,178.800 93.365 C 178.250 94.078,176.773 95.827,175.519 97.253 C 170.146 103.359,169.245 108.039,169.019 131.000 C 168.937 139.360,168.852 146.560,168.831 147.000 C 168.451 154.758,169.624 158.389,170.966 153.608 C 171.984 149.980,173.472 148.613,175.927 149.052 C 177.819 149.391,180.214 149.423,184.600 149.168 C 185.920 149.092,193.480 149.182,201.400 149.369 C 209.320 149.556,218.991 149.743,222.890 149.784 C 230.927 149.869,231.600 150.094,231.600 152.702 C 231.600 154.846,232.693 156.800,233.892 156.800 L 234.893 156.800 234.747 152.100 C 234.603 147.509,234.620 147.397,235.481 147.275 C 236.283 147.161,236.203 146.997,234.578 145.440 C 232.941 143.873,232.818 143.618,233.082 142.366 C 233.241 141.615,233.353 140.640,233.332 140.200 C 233.187 137.193,232.791 127.625,232.603 122.600 C 232.128 109.884,231.912 106.989,231.359 105.920 C 231.051 105.326,230.800 104.559,230.800 104.216 C 230.800 103.242,229.228 100.138,228.219 99.120 C 227.718 98.614,226.739 97.187,226.044 95.949 C 224.711 93.578,221.426 90.260,218.403 88.233 C 217.411 87.568,216.298 86.647,215.929 86.186 C 214.724 84.680,202.658 83.671,194.498 84.393 M74.935 85.937 C 74.008 86.557,74.009 87.600,74.936 87.600 C 75.968 87.600,77.511 86.627,76.961 86.323 C 76.096 85.845,75.299 85.693,74.935 85.937 M71.237 88.100 C 70.950 88.869,71.046 89.019,71.899 89.131 C 73.222 89.305,73.893 88.635,73.214 87.817 C 72.481 86.934,71.628 87.056,71.237 88.100 M69.091 89.974 C 68.930 90.591,68.552 90.800,67.600 90.800 C 66.669 90.800,66.270 91.012,66.119 91.587 C 66.006 92.019,65.573 92.482,65.157 92.614 C 64.271 92.895,64.127 94.400,64.986 94.400 C 65.308 94.400,65.753 94.061,65.975 93.646 C 66.197 93.231,66.795 92.788,67.304 92.660 C 68.478 92.365,70.232 90.072,69.694 89.534 C 69.445 89.285,69.230 89.441,69.091 89.974 M56.400 121.976 C 56.400 122.429,56.580 122.800,56.800 122.800 C 57.020 122.800,57.200 122.541,57.200 122.224 C 57.200 121.907,57.020 121.536,56.800 121.400 C 56.580 121.264,56.400 121.523,56.400 121.976 M57.867 125.467 C 57.111 126.223,57.616 128.310,58.600 128.498 C 59.412 128.653,59.599 128.531,59.595 127.845 C 59.581 125.760,58.736 124.597,57.867 125.467 M61.067 133.467 C 60.567 133.966,60.799 134.313,61.800 134.564 C 62.446 134.726,62.800 135.096,62.800 135.608 C 62.800 136.124,63.069 136.400,63.573 136.400 C 63.998 136.400,64.455 136.743,64.588 137.163 C 64.915 138.192,65.978 138.602,65.715 137.598 C 65.609 137.189,65.269 136.759,64.961 136.640 C 64.652 136.522,64.400 136.059,64.400 135.613 C 64.400 135.083,64.137 134.800,63.647 134.800 C 63.230 134.800,62.800 134.443,62.684 134.000 C 62.480 133.220,61.602 132.931,61.067 133.467 M67.600 140.115 C 67.600 140.962,70.370 143.200,71.418 143.200 C 72.138 143.200,72.541 143.455,72.684 144.000 C 72.800 144.443,73.230 144.800,73.647 144.800 C 74.133 144.800,74.400 144.517,74.400 144.000 C 74.400 143.560,74.143 143.200,73.829 143.200 C 73.514 143.200,73.010 142.953,72.709 142.652 C 72.408 142.350,71.585 141.806,70.880 141.442 C 70.176 141.077,69.600 140.625,69.600 140.436 C 69.600 140.248,69.150 140.007,68.600 139.902 C 68.050 139.797,67.600 139.893,67.600 140.115 M75.292 145.800 C 75.246 146.350,75.387 146.800,75.604 146.800 C 75.822 146.800,76.000 146.609,76.000 146.376 C 76.000 146.143,76.184 146.067,76.410 146.206 C 76.932 146.529,76.736 145.500,76.200 145.106 C 75.543 144.624,75.379 144.749,75.292 145.800 M80.775 147.030 C 79.944 148.031,81.041 148.461,83.800 148.216 C 85.120 148.099,88.757 147.974,91.881 147.939 C 95.944 147.893,97.616 147.735,97.751 147.385 C 98.200 146.212,81.739 145.869,80.775 147.030 M234.448 342.400 C 234.401 343.181,234.306 343.271,234.016 342.812 C 233.405 341.846,232.854 345.059,233.152 347.853 C 233.361 349.824,234.709 348.500,234.681 346.351 C 234.664 344.980,234.474 343.997,234.225 343.994 C 233.991 343.991,234.041 343.835,234.335 343.649 C 234.637 343.457,234.791 342.894,234.689 342.355 L 234.509 341.400 234.448 342.400 M171.100 351.646 C 170.164 352.172,170.109 354.487,171.040 354.129 C 171.393 353.994,171.840 354.135,172.034 354.442 C 172.283 354.834,172.381 354.644,172.366 353.800 C 172.331 351.886,171.919 351.186,171.100 351.646 M229.600 357.353 C 229.600 357.658,230.042 357.991,230.583 358.095 C 231.436 358.258,231.513 358.185,231.169 357.541 C 230.706 356.677,229.600 356.545,229.600 357.353 M178.957 366.233 C 179.091 366.581,179.200 366.941,179.200 367.033 C 179.200 367.125,179.785 367.186,180.500 367.168 C 181.215 367.151,181.575 367.046,181.300 366.935 C 181.025 366.824,180.800 366.478,180.800 366.167 C 180.800 365.823,180.390 365.600,179.757 365.600 C 178.971 365.600,178.774 365.755,178.957 366.233 M190.492 373.000 C 190.590 374.186,192.350 374.424,193.225 373.370 C 193.879 372.582,193.163 372.015,191.504 372.006 C 190.579 372.001,190.422 372.155,190.492 373.000 M211.242 372.366 C 210.472 372.853,210.995 374.000,211.987 374.000 C 212.588 374.000,212.800 373.738,212.800 373.000 C 212.800 371.974,212.228 371.741,211.242 372.366 " stroke="none" fill="#6d3a83" fill-rule="evenodd"></path></g></svg>