<?xml version="1.0" encoding="UTF-8"?>
<svg version="1.1" xmlns="http://www.w3.org/2000/svg" width="512" height="512">
<path d="M0 0 C1.9500293 -0.02320313 1.9500293 -0.02320313 3.93945312 -0.046875 C5.18533203 -0.04171875 6.43121094 -0.0365625 7.71484375 -0.03125 C9.40081665 -0.02448242 9.40081665 -0.02448242 11.12084961 -0.01757812 C14.77547469 0.62544662 15.76193057 1.63836668 18.0625 4.5 C18.54351807 6.95513916 18.54351807 6.95513916 18.51660156 9.72753906 C18.51614838 11.28870453 18.51614838 11.28870453 18.51568604 12.88140869 C18.49504089 13.99820007 18.47439575 15.11499146 18.453125 16.265625 C18.44746521 17.41415955 18.44180542 18.56269409 18.43597412 19.74603271 C18.41358331 23.41444574 18.36337942 27.08188217 18.3125 30.75 C18.29243861 33.23696506 18.27418722 35.72394543 18.2578125 38.2109375 C18.21370924 44.30766797 18.1446608 50.40366841 18.0625 56.5 C23.3425 56.5 28.6225 56.5 34.0625 56.5 C34.3925 54.52 34.7225 52.54 35.0625 50.5 C38.67452311 48.09198459 40.3152173 48.24458213 44.61328125 48.23257446 C45.28186944 48.22804335 45.95045763 48.22351224 46.63930607 48.21884382 C48.88460721 48.20616167 51.12966696 48.20782266 53.375 48.20947266 C54.98319308 48.20348942 56.59138329 48.19668435 58.1995697 48.18911743 C62.57397337 48.17142061 66.94829883 48.16676026 71.32273483 48.16548586 C74.05811121 48.16406478 76.79346768 48.15979581 79.52883911 48.15449142 C89.07929751 48.13597283 98.62970003 48.12782233 108.18017578 48.12939453 C117.06819986 48.13059361 125.95598019 48.10954192 134.84394264 48.0779072 C142.48233998 48.05169379 150.12065802 48.04102949 157.75909996 48.04230535 C162.31743298 48.04281388 166.87554985 48.03719269 171.43383789 48.01594925 C175.72834603 47.99648363 180.0224339 47.99649883 184.31695747 48.01098251 C185.88620179 48.01306205 187.45547297 48.00842112 189.02467155 47.9962616 C202.49137357 47.89874094 213.07396065 49.96462689 223.0625 59.5 C233.04359424 69.95544327 234.66329984 81.14705607 234.58007812 95.09741211 C234.5855093 96.63932961 234.59263751 98.18124191 234.60131836 99.72314453 C234.61942583 103.87771942 234.61253965 108.0318934 234.59980202 112.18647456 C234.58962144 116.54478268 234.59908048 120.90305822 234.60534668 125.2613678 C234.61260302 132.57022222 234.6030828 139.87891439 234.58398438 147.18774414 C234.56216235 155.63644332 234.56931354 164.08475715 234.59129 172.53344721 C234.60943356 179.79994695 234.61200918 187.06633068 234.60153532 194.33284575 C234.59530195 198.66780743 234.59446157 203.00258775 234.60768127 207.33753777 C234.61922604 211.40646601 234.61123978 215.47489554 234.58810425 219.54376984 C234.58281219 221.03693119 234.58433949 222.53013448 234.59315491 224.02327919 C234.60407095 226.05972934 234.58795997 228.09627117 234.57043457 230.13267517 C234.56817242 231.84237189 234.56817242 231.84237189 234.56586456 233.58660793 C233.946524 237.17125019 232.99016882 238.38561238 230.0625 240.5 C228.7425 240.5 227.4225 240.5 226.0625 240.5 C226.0625 245.78 226.0625 251.06 226.0625 256.5 C228.0425 256.83 230.0225 257.16 232.0625 257.5 C234.66115397 261.39798095 234.35789848 264.68035299 234.35302734 269.203125 C234.35974457 270.09297592 234.36646179 270.98282684 234.37338257 271.89964294 C234.39242077 274.84981844 234.39629071 277.79976683 234.3984375 280.75 C234.404865 282.80444431 234.41159333 284.8588877 234.41860962 286.91333008 C234.43059949 291.22756061 234.43428905 295.54171101 234.43310547 299.85595703 C234.43290301 305.3624886 234.46012159 310.86849979 234.49464989 316.37490845 C234.51698888 320.62337562 234.52094075 324.87171939 234.51988602 329.12023926 C234.52223466 331.14865906 234.53101633 333.17708265 234.54655075 335.20544434 C234.65043095 350.18063643 233.91849185 362.12807983 223.0625 373.5 C213.79605362 382.34604049 203.75351776 385.12731579 191.1652832 384.95410156 C190.03226273 384.95468567 188.89924225 384.95526978 187.73188782 384.95587158 C184.02536265 384.95310786 180.31966414 384.92209594 176.61328125 384.890625 C174.02825866 384.88315655 171.44323037 384.87746648 168.85820007 384.87347412 C162.77394929 384.85981594 156.69003441 384.82836291 150.60590953 384.78807616 C143.6723332 384.74317348 136.73874203 384.72132523 129.80505621 384.70129442 C115.55738162 384.65962382 101.30995121 384.58938814 87.0625 384.5 C88.01266958 386.26727919 88.96589517 388.03291556 89.92041016 389.79785156 C90.45090973 390.78126526 90.9814093 391.76467896 91.52798462 392.77789307 C102.81366451 412.79778199 123.8804612 423.47028391 144.85888672 430.61767578 C150.57708911 432.1925564 156.25443304 432.47132971 162.16210938 432.30249023 C169.15321662 432.12714463 174.00783554 433.82317731 179.3046875 438.46484375 C179.84351563 439.11582031 180.38234375 439.76679688 180.9375 440.4375 C181.49179687 441.08589844 182.04609375 441.73429687 182.6171875 442.40234375 C187.04341702 448.82635795 186.42960807 455.54544096 186.4375 463.0625 C186.46199219 464.29419922 186.48648437 465.52589844 186.51171875 466.79492188 C186.51558594 467.97763672 186.51945312 469.16035156 186.5234375 470.37890625 C186.53165527 471.4572876 186.53987305 472.53566895 186.54833984 473.64672852 C185.9181878 477.34752599 185.07859653 478.27334423 182.0625 480.5 C179.05533462 480.89272318 176.41499001 481.04041291 173.40820312 481.00793457 C172.08423901 481.01729451 172.08423901 481.01729451 170.73352814 481.02684355 C167.76999864 481.04282396 164.80728589 481.03014953 161.84375 481.01757812 C159.72159342 481.02299699 157.59944059 481.03011832 155.47729492 481.03881836 C149.70875865 481.0570825 143.94050794 481.04997132 138.17196655 481.03730202 C132.14132912 481.02719041 126.1107165 481.03656258 120.08007812 481.04284668 C109.95177816 481.05012844 99.82359478 481.04052146 89.6953125 481.02148438 C77.97774157 480.99971471 66.26044901 481.0067657 54.54288483 481.02879 C44.49099592 481.04692889 34.43919093 481.0495097 24.38729095 481.03903532 C18.37997371 481.0327921 12.3727874 481.03198757 6.36547852 481.04518127 C0.71834247 481.0567171 -4.92843391 481.04875532 -10.57553101 481.02560425 C-12.65082196 481.02030505 -14.72614307 481.02185151 -16.80142212 481.03065491 C-19.6290942 481.04154608 -22.45560551 481.02792466 -25.28320312 481.00793457 C-26.52230061 481.0213189 -26.52230061 481.0213189 -27.78643036 481.03497362 C-31.34843666 480.98595038 -33.52516445 480.78914127 -36.47839355 478.71825409 C-37.9375 476.5 -37.9375 476.5 -37.9375 472.5 C-43.2175 472.5 -48.4975 472.5 -53.9375 472.5 C-54.2675 474.48 -54.5975 476.46 -54.9375 478.5 C-58.32008967 480.75505978 -59.47133183 480.75407504 -63.43443298 480.76742554 C-64.57710129 480.77595551 -65.71976959 480.78448547 -66.89706421 480.79327393 C-68.15169464 480.79236755 -69.40632507 480.79146118 -70.69897461 480.79052734 C-72.03281532 480.79651127 -73.36665256 480.80331651 -74.70048523 480.81088257 C-78.32444601 480.82856258 -81.94831238 480.83323875 -85.57231212 480.83451414 C-88.59674026 480.83641261 -91.62114638 480.84376945 -94.64556605 480.85085833 C-101.78024222 480.8671471 -108.91486792 480.8720268 -116.04956055 480.87060547 C-123.41199647 480.86940353 -130.77413948 480.89051443 -138.13650125 480.9220928 C-144.45590659 480.9482329 -150.77521612 480.95897374 -157.09467512 480.95769465 C-160.86976481 480.95718439 -164.64459417 480.96290256 -168.41963005 480.98405075 C-171.96970168 481.00339561 -175.51926364 481.00358398 -179.0693531 480.98901749 C-180.99372952 480.98592486 -182.91810578 481.00263166 -184.84240723 481.01989746 C-186.56063942 481.007314 -186.56063942 481.007314 -188.31358337 480.99447632 C-189.30891051 480.99556585 -190.30423765 480.99665539 -191.32972622 480.99777794 C-194.67444529 480.35933016 -195.86145725 479.14863499 -197.9375 476.5 C-198.45507812 473.69433594 -198.45507812 473.69433594 -198.46875 470.484375 C-198.47648437 468.73060547 -198.47648437 468.73060547 -198.484375 466.94140625 C-198.46890625 465.72324219 -198.4534375 464.50507813 -198.4375 463.25 C-198.45296875 462.04730469 -198.4684375 460.84460938 -198.484375 459.60546875 C-198.44795162 451.31004293 -197.49283997 445.55718716 -191.97265625 439.2578125 C-191.32167969 438.71898437 -190.67070312 438.18015625 -190 437.625 C-189.35160156 437.07070313 -188.70320313 436.51640625 -188.03515625 435.9453125 C-183.4042672 432.75456958 -179.86794956 432.40075161 -174.40209961 432.52905273 C-164.00714519 432.66331395 -155.46444632 430.38894682 -145.875 426.4375 C-144.77075684 425.9844751 -143.66651367 425.5314502 -142.52880859 425.06469727 C-122.91337757 416.54425362 -108.3684302 403.66371687 -98.9375 384.5 C-99.4881953 384.50368717 -100.03889061 384.50737434 -100.60627365 384.51117325 C-114.05454277 384.59981304 -127.50276016 384.66559318 -140.95125961 384.70724869 C-147.45508504 384.72807402 -153.95869874 384.75629956 -160.46240234 384.80175781 C-166.74533402 384.84539537 -173.02806274 384.86917508 -179.31113434 384.87950897 C-181.70158327 384.88686821 -184.09202179 384.9012387 -186.48238373 384.92292023 C-205.68709497 385.09009948 -219.04596205 383.77177154 -233.6875 370.1875 C-243.14575764 360.19386929 -246.40597602 348.70887632 -246.32518005 335.23512268 C-246.33325836 333.59848542 -246.33325836 333.59848542 -246.34149987 331.92878479 C-246.35573574 328.2955867 -246.34868634 324.66275519 -246.34155273 321.02954102 C-246.34725854 318.41540231 -246.35422362 315.80126609 -246.36235046 313.18713379 C-246.37949603 306.83737777 -246.38038738 300.48772089 -246.37513756 294.13794775 C-246.37108692 288.97427348 -246.37255 283.81062838 -246.37788582 278.64695549 C-246.37863424 277.91046489 -246.37938266 277.17397429 -246.38015376 276.41516579 C-246.38168533 274.91872517 -246.38322367 273.42228456 -246.38476873 271.92584395 C-246.39847826 257.91099268 -246.39306684 243.89619733 -246.38158352 229.88134735 C-246.37165136 217.07593655 -246.38459423 204.27067025 -246.40851771 191.46528173 C-246.43293293 178.29686251 -246.44251072 165.12851052 -246.43586498 151.96006912 C-246.43237832 144.57489979 -246.43456828 137.18984156 -246.45211601 129.80468941 C-246.46841379 122.85984246 -246.46361874 115.91527548 -246.44481087 108.9704361 C-246.44112773 106.4255955 -246.44422535 103.88073443 -246.45469666 101.3359127 C-246.46792624 97.85424586 -246.45634026 94.37348921 -246.43870544 90.89186096 C-246.44831045 89.89184022 -246.45791546 88.89181948 -246.46781152 87.86149508 C-246.35217697 76.71781663 -242.6380543 67.56652123 -234.9375 59.5 C-224.68362083 49.71132518 -213.85903359 47.89562064 -200.07446289 47.98242188 C-198.61136177 47.97698979 -197.14826613 47.96986107 -195.68518066 47.96118164 C-191.74546765 47.94308547 -187.80617774 47.94995535 -183.86645818 47.96269798 C-179.73236728 47.97288386 -175.59831059 47.96341814 -171.46421814 47.95715332 C-164.53198791 47.94989879 -157.5999288 47.95941268 -150.66772461 47.97851562 C-142.65527088 48.00034045 -134.64322344 47.99318377 -126.63077933 47.97121 C-119.73794771 47.95306493 -112.84523839 47.95049146 -105.95239061 47.96096468 C-101.84099085 47.96719684 -97.7297823 47.96804175 -93.61839485 47.95481873 C-89.75957524 47.9432716 -85.90128137 47.95126436 -82.04251862 47.97439575 C-80.62676047 47.97968644 -79.21095809 47.97816282 -77.79521751 47.96934509 C-75.86386567 47.95842375 -73.93241714 47.97454468 -72.00111389 47.99206543 C-70.3799093 47.99432758 -70.3799093 47.99432758 -68.7259531 47.99663544 C-65.22803357 48.6280711 -64.01869727 49.65203231 -61.9375 52.5 C-61.9375 53.82 -61.9375 55.14 -61.9375 56.5 C-56.6575 56.5 -51.3775 56.5 -45.9375 56.5 C-45.98390625 54.82292969 -46.0303125 53.14585938 -46.078125 51.41796875 C-46.11567264 49.17449713 -46.15206956 46.93100605 -46.1875 44.6875 C-46.23777344 43.03717773 -46.23777344 43.03717773 -46.2890625 41.35351562 C-46.42931545 29.46707796 -43.19668773 20.15170358 -34.9375 11.5 C-24.67460137 1.70271492 -13.83703278 -0.16814622 0 0 Z " fill="#CFD7D9" transform="translate(261.9375,15.5)"/>
<path d="M0 0 C1.46310112 -0.00543209 2.92619676 -0.0125608 4.38928223 -0.02124023 C8.32899524 -0.03933641 12.26828515 -0.03246652 16.20800471 -0.01972389 C20.34209561 -0.00953802 24.4761523 -0.01900374 28.61024475 -0.02526855 C35.54247498 -0.03252309 42.47453409 -0.02300919 49.40673828 -0.00390625 C57.41919201 0.01791858 65.43123945 0.0107619 73.44368356 -0.01121187 C80.33651518 -0.02935695 87.2292245 -0.03193041 94.12207228 -0.0214572 C98.23347204 -0.01522504 102.34468059 -0.01438012 106.45606804 -0.02760315 C110.31488765 -0.03915027 114.17318152 -0.03115752 118.03194427 -0.00802612 C119.44770242 -0.00273543 120.8635048 -0.00425905 122.27924538 -0.01307678 C124.21059722 -0.02399812 126.14204575 -0.0078772 128.073349 0.00964355 C129.69455359 0.01190571 129.69455359 0.01190571 131.34850979 0.01421356 C134.81042832 0.63915042 136.00107547 1.77532123 138.13696289 4.51757812 C138.48461914 6.77148438 138.48461914 6.77148438 138.19946289 9.08007812 C138.09311523 10.22669922 138.09311523 10.22669922 137.98461914 11.39648438 C136.75865808 14.46421183 135.06395742 15.07563306 132.13696289 16.51757812 C129.29516888 16.89116573 129.29516888 16.89116573 126.12272644 16.88938904 C124.91577621 16.89614655 123.70882599 16.90290405 122.46530151 16.90986633 C120.4913591 16.89828743 120.4913591 16.89828743 118.47753906 16.88647461 C117.07107755 16.88894384 115.66461787 16.89278349 114.25816345 16.89788818 C111.23358716 16.90621651 108.20919922 16.90542679 105.18462181 16.89770317 C100.39743241 16.886103 95.61048436 16.89829775 90.82331848 16.9143219 C78.93148246 16.95048936 67.03965215 16.95674887 55.14776611 16.95422363 C45.90744805 16.95251072 36.66732761 16.95968626 27.42706472 16.9942022 C22.67314962 17.01095924 17.91971716 17.00923333 13.16580427 16.99337947 C10.20116883 16.98756404 7.23675998 16.9983558 4.2721653 17.0136261 C2.25317194 17.01910108 0.23415489 17.00477911 -1.78479004 16.98976135 C-10.06074089 17.05497519 -15.7050331 17.87389169 -22.10522461 23.48242188 C-22.64405273 24.13339844 -23.18288086 24.784375 -23.73803711 25.45507812 C-24.29233398 26.10347656 -24.84663086 26.751875 -25.41772461 27.41992188 C-29.30189896 33.05722357 -29.15337901 38.28056785 -29.13719177 44.90870667 C-29.14242845 45.96623561 -29.14766513 47.02376456 -29.1530605 48.11333984 C-29.16808217 51.66291894 -29.16876614 55.21235416 -29.16943359 58.76196289 C-29.17705377 61.30477645 -29.18548102 63.8475877 -29.19465637 66.39039612 C-29.21662601 73.30391502 -29.22542586 80.217384 -29.23048282 87.13093305 C-29.23374243 91.45130128 -29.24026664 95.77166064 -29.24748421 100.09202385 C-29.26705059 112.06329975 -29.28345379 124.03456741 -29.28636074 136.00586033 C-29.28654831 136.7717449 -29.28673588 137.53762948 -29.28692913 138.32672268 C-29.28729538 139.87925176 -29.28765907 141.43178084 -29.28802025 142.98430992 C-29.28820306 143.75494907 -29.28838587 144.52558822 -29.28857422 145.31958008 C-29.28875477 146.09116469 -29.28893532 146.86274929 -29.28912134 147.65771525 C-29.29266 160.14916376 -29.31966283 172.64043955 -29.35707211 185.1318282 C-29.39520781 197.96899453 -29.41451862 210.80607531 -29.41482025 223.64329952 C-29.41540375 230.84585397 -29.42382536 238.04820254 -29.45281792 245.25070381 C-29.47998089 252.02973427 -29.48119198 258.80828948 -29.46516228 265.58737755 C-29.46334925 268.07052626 -29.47002507 270.55369846 -29.48598099 273.03679657 C-29.96035703 290.49936516 -29.96035703 290.49936516 -23.86303711 306.51757812 C-23.29318163 307.43272359 -23.29318163 307.43272359 -22.71181393 308.36635685 C-18.39490745 314.27223654 -11.72111623 317.5483192 -4.86303711 319.51757812 C-1.47912325 319.81668437 -1.47912325 319.81668437 2.15952778 319.77484703 C2.84585744 319.77835311 3.53218711 319.78185918 4.23931465 319.7854715 C6.53806771 319.79477202 8.83656669 319.78986573 11.1353302 319.78500366 C12.80051574 319.7887406 14.46569953 319.7933423 16.13088053 319.79873431 C20.70620485 319.81097427 25.28145609 319.81070267 29.85679305 319.80834556 C34.79147764 319.80793764 39.72613872 319.81897408 44.66081238 319.82846069 C54.32850683 319.84507699 63.9961769 319.85057052 73.66388444 319.85168545 C81.52169663 319.8526356 89.37950077 319.85674423 97.23731041 319.8630867 C119.51263611 319.8807006 141.78794254 319.8899253 164.06327526 319.88842575 C165.26426454 319.88834584 166.46525382 319.88826593 167.70263672 319.88818359 C168.90509128 319.88810183 170.10754585 319.88802007 171.34643843 319.88793583 C190.83658736 319.88712282 210.32665903 319.90626383 229.81678561 319.93446033 C249.82615411 319.96317976 269.83548492 319.97700115 289.84487456 319.97527277 C301.0798266 319.97460856 312.31469763 319.9801146 323.54963112 320.00162888 C333.11483183 320.01982824 342.67991482 320.0241982 352.24512533 320.01061003 C357.12523156 320.0040742 362.00511186 320.00398544 366.88519669 320.02131653 C371.35433806 320.03702495 375.82307394 320.03420644 380.2922053 320.01674826 C381.90725122 320.01367346 383.52232723 320.01732885 385.13733766 320.02846842 C394.68181819 320.08993122 402.83882364 319.88699514 410.47680664 313.58789062 C411.26764648 312.62496094 411.26764648 312.62496094 412.07446289 311.64257812 C412.61973633 311.00578125 413.16500977 310.36898438 413.72680664 309.71289062 C417.20128154 304.3038743 417.42103797 299.04761722 417.37646484 292.83764648 C417.378479 291.98648758 417.38049316 291.13532867 417.38256836 290.25837708 C417.38610181 288.41851564 417.38536169 286.57864204 417.38079262 284.73878288 C417.37518317 281.82575913 417.38438368 278.91313109 417.397995 276.00013733 C417.4350634 267.7210201 417.45364156 259.44203976 417.44238281 251.1628418 C417.43653299 246.09178636 417.45478146 241.02129103 417.48827171 235.95034981 C417.49622499 234.02027514 417.49494972 232.09013943 417.48424721 230.16007805 C417.46992497 227.46213636 417.48618317 224.76595937 417.50927734 222.06811523 C417.49750961 221.27265289 417.48574188 220.47719055 417.47361755 219.65762329 C417.54101293 215.64206854 417.97032075 213.73332854 420.45353699 210.51832581 C423.13696289 208.51757812 423.13696289 208.51757812 426.69946289 207.95507812 C430.79838054 208.6258101 431.72756573 209.18236578 434.13696289 212.51757812 C434.53159037 215.57683019 434.68409757 218.27540129 434.65454102 221.33422852 C434.66505493 222.66922394 434.66505493 222.66922394 434.67578125 224.03118896 C434.69339653 226.97618762 434.68171892 229.92022573 434.66821289 232.86523438 C434.67090846 234.91825036 434.67479142 236.97126511 434.67980957 239.02427673 C434.6857108 243.33263269 434.67712761 247.64065718 434.65844727 251.94897461 C434.63575796 257.44768755 434.6487132 262.9456152 434.67273712 268.44429874 C434.68726413 272.68851011 434.68255586 276.93253871 434.67222595 281.17675591 C434.66957246 283.20236747 434.67277949 285.22799607 434.68214417 287.25358772 C434.73604129 302.20068513 433.96903499 314.17071448 423.13696289 325.51757812 C413.87051651 334.36361862 403.82798065 337.14489391 391.23974609 336.97167969 C390.10672562 336.97226379 388.97370514 336.9728479 387.80635071 336.97344971 C384.09982554 336.97068599 380.39412703 336.93967406 376.68774414 336.90820312 C374.10272155 336.90073468 371.51769326 336.8950446 368.93266296 336.89105225 C362.84841218 336.87739406 356.7644973 336.84594104 350.68037242 336.80565429 C343.74679609 336.76075161 336.81320492 336.73890335 329.8795191 336.71887255 C315.63184451 336.67720195 301.3844141 336.60696626 287.13696289 336.51757812 C288.08713247 338.28485731 289.04035806 340.05049368 289.99487305 341.81542969 C290.52537262 342.79884338 291.05587219 343.78225708 291.60244751 344.79547119 C302.8881274 364.81536011 323.95492409 375.48786203 344.93334961 382.63525391 C350.651552 384.21013452 356.32889593 384.48890784 362.23657227 384.32006836 C369.22767951 384.14472276 374.08229843 385.84075543 379.37915039 390.48242188 C379.91797852 391.13339844 380.45680664 391.784375 381.01196289 392.45507812 C381.56625977 393.10347656 382.12055664 393.751875 382.69165039 394.41992188 C387.11787991 400.84393607 386.50407097 407.56301909 386.51196289 415.08007812 C386.53645508 416.31177734 386.56094727 417.54347656 386.58618164 418.8125 C386.59004883 419.99521484 386.59391602 421.17792969 386.59790039 422.39648438 C386.60611816 423.47486572 386.61433594 424.55324707 386.62280273 425.66430664 C385.99265069 429.36510412 385.15305942 430.29092236 382.13696289 432.51757812 C379.12979751 432.9103013 376.4894529 433.05799103 373.48266602 433.0255127 C372.1587019 433.03487264 372.1587019 433.03487264 370.80799103 433.04442167 C367.84446153 433.06040209 364.88174878 433.04772765 361.91821289 433.03515625 C359.79605631 433.04057512 357.67390348 433.04769645 355.55175781 433.05639648 C349.78322154 433.07466063 344.01497083 433.06754945 338.24642944 433.05488014 C332.21579201 433.04476853 326.18517939 433.0541407 320.15454102 433.0604248 C310.02624105 433.06770656 299.89805767 433.05809959 289.76977539 433.0390625 C278.05220446 433.01729283 266.3349119 433.02434383 254.61734772 433.04636812 C244.56545881 433.06450701 234.51365382 433.06708782 224.46175385 433.05661345 C218.4544366 433.05037023 212.44725029 433.0495657 206.43994141 433.0627594 C200.79280536 433.07429522 195.14602899 433.06633344 189.49893188 433.04318237 C187.42364093 433.03788317 185.34831982 433.03942964 183.27304077 433.04823303 C180.44536869 433.0591242 177.61885738 433.04550278 174.79125977 433.0255127 C173.55216228 433.03889703 173.55216228 433.03889703 172.28803253 433.05255175 C168.72602623 433.0035285 166.54929845 432.80671939 163.59606934 430.73583221 C162.13696289 428.51757812 162.13696289 428.51757812 162.13696289 424.51757812 C156.85696289 424.51757812 151.57696289 424.51757812 146.13696289 424.51757812 C145.80696289 426.49757813 145.47696289 428.47757812 145.13696289 430.51757812 C141.75437322 432.7726379 140.60313106 432.77165316 136.64002991 432.78500366 C135.4973616 432.79353363 134.3546933 432.8020636 133.17739868 432.81085205 C131.92276825 432.80994568 130.66813782 432.80903931 129.37548828 432.80810547 C128.04164757 432.8140894 126.70781033 432.82089463 125.37397766 432.82846069 C121.75001688 432.8461407 118.12615051 432.85081687 114.50215077 432.85209227 C111.47772263 432.85399074 108.45331651 432.86134758 105.42889684 432.86843646 C98.29422067 432.88472522 91.15959497 432.88960492 84.02490234 432.88818359 C76.66246642 432.88698165 69.30032342 432.90809256 61.93796164 432.93967092 C55.6185563 432.96581102 49.29924677 432.97655187 42.97978777 432.97527277 C39.20469808 432.97476251 35.42986872 432.98048068 31.65483284 433.00162888 C28.10476121 433.02097374 24.55519925 433.0211621 21.00510979 433.00659561 C19.08073337 433.00350299 17.15635711 433.02020978 15.23205566 433.03747559 C13.51382347 433.02489212 13.51382347 433.02489212 11.76087952 433.01205444 C10.76555238 433.01314398 9.77022524 433.01423351 8.74473667 433.01535606 C5.4000176 432.37690829 4.21300565 431.16621311 2.13696289 428.51757812 C1.61938477 425.71191406 1.61938477 425.71191406 1.60571289 422.50195312 C1.59797852 420.74818359 1.59797852 420.74818359 1.59008789 418.95898438 C1.60555664 417.74082031 1.62102539 416.52265625 1.63696289 415.26757812 C1.62149414 414.06488281 1.60602539 412.8621875 1.59008789 411.62304688 C1.62651128 403.32762106 2.58162292 397.57476529 8.10180664 391.27539062 C8.7527832 390.7365625 9.40375977 390.19773437 10.07446289 389.64257812 C10.72286133 389.08828125 11.37125977 388.53398437 12.03930664 387.96289062 C16.6701957 384.7721477 20.20651333 384.41832974 25.67236328 384.54663086 C36.0673177 384.68089208 44.61001658 382.40652495 54.19946289 378.45507812 C55.30370605 378.00205322 56.40794922 377.54902832 57.5456543 377.08227539 C77.16108532 368.56183174 91.70603269 355.681295 101.13696289 336.51757812 C100.58626759 336.5212653 100.03557228 336.52495247 99.46818924 336.52875137 C86.01992012 336.61739116 72.57170273 336.6831713 59.12320328 336.72482681 C52.61937785 336.74565214 46.11576415 336.77387769 39.61206055 336.81933594 C33.32912887 336.8629735 27.04640015 336.88675321 20.76332855 336.8970871 C18.37287962 336.90444633 15.9824411 336.91881682 13.59207916 336.94049835 C-5.61263208 337.1076776 -18.97149916 335.78934966 -33.61303711 322.20507812 C-43.07129475 312.21144741 -46.33151313 300.72645445 -46.25071716 287.25270081 C-46.25879547 285.61606355 -46.25879547 285.61606355 -46.26703697 283.94636291 C-46.28127285 280.31316482 -46.27422345 276.68033332 -46.26708984 273.04711914 C-46.27279565 270.43298043 -46.27976073 267.81884422 -46.28788757 265.20471191 C-46.30503314 258.85495589 -46.30592449 252.50529902 -46.30067467 246.15552587 C-46.29662403 240.9918516 -46.29808711 235.8282065 -46.30342293 230.66453362 C-46.30417135 229.92804302 -46.30491977 229.19155242 -46.30569087 228.43274392 C-46.30722244 226.9363033 -46.30876078 225.43986268 -46.31030584 223.94342207 C-46.32401537 209.9285708 -46.31860395 195.91377545 -46.30712063 181.89892548 C-46.29718847 169.09351468 -46.31013134 156.28824837 -46.33405482 143.48285986 C-46.35847004 130.31444063 -46.36804783 117.14608864 -46.36140209 103.97764724 C-46.35791543 96.59247791 -46.36010539 89.20741968 -46.37765312 81.82226753 C-46.3939509 74.87742058 -46.38915585 67.93285361 -46.37034798 60.98801422 C-46.36666484 58.44317362 -46.36976246 55.89831255 -46.38023376 53.35349083 C-46.39346335 49.87182399 -46.38187737 46.39106734 -46.36424255 42.90943909 C-46.37384756 41.90941835 -46.38345257 40.9093976 -46.39334863 39.8790732 C-46.27771408 28.73539476 -42.56359141 19.58409936 -34.86303711 11.51757812 C-24.60915794 1.7289033 -13.7845707 -0.08680124 0 0 Z " fill="#323232" transform="translate(61.863037109375,63.482421875)"/>
<path d="M0 0 C1.00288229 -0.00679667 1.00288229 -0.00679667 2.02602482 -0.01373065 C4.27132596 -0.02641279 6.51638571 -0.02475181 8.76171875 -0.02310181 C10.36991183 -0.02908504 11.97810204 -0.03589011 13.58628845 -0.04345703 C17.96069212 -0.06115386 22.33501758 -0.0658142 26.70945358 -0.0670886 C29.44482996 -0.06850968 32.18018643 -0.07277865 34.91555786 -0.07808304 C44.46601626 -0.09660163 54.01641878 -0.10475213 63.56689453 -0.10317993 C72.45491861 -0.10198085 81.34269894 -0.12303254 90.23066139 -0.15466726 C97.86905873 -0.18088067 105.50737677 -0.19154497 113.14581871 -0.19026911 C117.70415173 -0.18976059 122.2622686 -0.19538177 126.82055664 -0.21662521 C131.11506478 -0.23609083 135.40915265 -0.23607563 139.70367622 -0.22159195 C141.27292054 -0.21951241 142.84219172 -0.22415335 144.4113903 -0.23631287 C157.87809232 -0.33383352 168.4606794 1.73205243 178.44921875 11.26742554 C188.43031299 21.72286881 190.05001859 32.91448161 189.96679688 46.86483765 C189.97222805 48.40675514 189.97935626 49.94866744 189.98803711 51.49057007 C190.00614458 55.64514496 189.9992584 59.79931894 189.98652077 63.9539001 C189.97634019 68.31220822 189.98579923 72.67048376 189.99206543 77.02879333 C189.99932177 84.33764776 189.98980155 91.64633993 189.97070312 98.95516968 C189.9488811 107.40386886 189.95603229 115.85218269 189.97800875 124.30087274 C189.99615231 131.56737249 189.99872793 138.83375621 189.98825407 146.10027128 C189.9820207 150.43523297 189.98118032 154.77001329 189.99440002 159.1049633 C190.00594479 163.17389154 189.99795853 167.24232108 189.974823 171.31119537 C189.96953094 172.80435673 189.97105824 174.29756002 189.97987366 175.79070473 C189.9907897 177.82715488 189.97467872 179.86369671 189.95715332 181.90010071 C189.95564522 183.03989852 189.95413712 184.17969633 189.95258331 185.35403347 C189.33324275 188.93867573 188.37688757 190.15303792 185.44921875 192.26742554 C184.12921875 192.26742554 182.80921875 192.26742554 181.44921875 192.26742554 C181.44921875 197.54742554 181.44921875 202.82742554 181.44921875 208.26742554 C179.46921875 209.25742554 177.48921875 210.24742554 175.44921875 211.26742554 C174.30267393 213.56051517 174.25192758 215.0665221 174.1328125 217.61898804 C174.09091797 218.46976929 174.04902344 219.32055054 174.00585938 220.19711304 C173.96654297 221.08656616 173.92722656 221.97601929 173.88671875 222.89242554 C173.82194336 224.23820679 173.82194336 224.23820679 173.75585938 225.61117554 C173.6496516 227.82973793 173.54891916 230.04856119 173.44921875 232.26742554 C168.16921875 232.26742554 162.88921875 232.26742554 157.44921875 232.26742554 C157.4411319 230.733134 157.43304504 229.19884247 157.42471313 227.61805725 C157.34734083 213.18237352 157.25974284 198.74679321 157.16169167 184.31123638 C157.1115422 176.88918309 157.06509961 169.46714097 157.02734375 162.04501343 C156.99443135 155.57686341 156.9546044 149.10879952 156.90642869 142.64074451 C156.88115611 139.21507145 156.85937716 135.78945557 156.84587479 132.36371422 C156.83068246 128.54204476 156.80005471 124.720585 156.76806641 120.89901733 C156.76590622 119.75966232 156.76374603 118.62030731 156.76152039 117.44642639 C156.7503569 116.40736145 156.73919342 115.36829651 156.72769165 114.29774475 C156.72216089 113.39346583 156.71663013 112.48918692 156.71093178 111.55750561 C156.59408445 108.99003044 156.59408445 108.99003044 154.44921875 106.26742554 C150.68320924 105.01208904 147.1293043 105.06626512 143.203125 105.02914429 C141.99184181 105.01703667 141.99184181 105.01703667 140.75608826 105.00468445 C139.04892106 104.99086403 137.34172647 104.98013275 135.63452148 104.97225952 C133.02469786 104.95501132 130.41613 104.91110498 127.80664062 104.86703491 C126.14714472 104.85691048 124.48763807 104.84839359 122.828125 104.84164429 C122.04885147 104.8241362 121.26957794 104.80662811 120.46669006 104.78858948 C117.08344139 104.80213376 114.96489619 104.86815114 112.24396896 106.97488785 C110.10124155 109.71191683 109.94426972 110.97993841 109.93023682 114.41799927 C109.91632401 115.45843887 109.90241119 116.49887848 109.88807678 117.57084656 C109.89562233 119.27448616 109.89562233 119.27448616 109.90332031 121.01254272 C109.8878138 122.81295265 109.8878138 122.81295265 109.87199402 124.6497345 C109.84755999 127.93673459 109.84072931 131.22320663 109.84171391 134.51027966 C109.83858481 137.94701247 109.81296677 141.38357583 109.78973389 144.82022095 C109.74916984 151.32599868 109.72883231 157.83167617 109.71575999 164.33756089 C109.69989124 171.7450996 109.66147623 179.15246768 109.62116671 186.55990744 C109.53876231 201.79569609 109.48467368 217.03145093 109.44921875 232.26742554 C102.15424055 232.52127904 94.86040201 232.69621099 87.56201172 232.81674194 C85.08045905 232.86698893 82.59920182 232.93520186 80.11865234 233.02182007 C76.54841344 233.14335403 72.98208807 233.19987461 69.41015625 233.24398804 C67.75045303 233.32140732 67.75045303 233.32140732 66.05722046 233.40039062 C62.89122305 233.40268858 60.44434126 233.3037087 57.44921875 232.26742554 C55.32928347 229.90803179 54.04750142 227.672916 52.71963501 224.79901123 C50.62636379 220.62770483 47.27206012 217.85460101 43.44921875 215.26742554 C42.80283447 215.10290894 42.1564502 214.93839233 41.49047852 214.76889038 C38.82753701 213.95597657 37.419027 213.26582082 35.44921875 211.26742554 C33.83251235 205.81470099 33.53776703 200.29438999 33.13671875 194.64242554 C32.99166389 193.01632079 32.84246454 191.39058064 32.68920898 189.76522827 C32.31157148 185.69882337 31.97015778 181.63036871 31.63879395 177.55996704 C31.16329472 171.80973322 30.60103074 166.06956572 30.01171875 160.32992554 C29.92559326 159.27273315 29.83946777 158.21554077 29.75073242 157.12631226 C29.65252197 156.1532312 29.55431152 155.18015015 29.453125 154.17758179 C29.37908447 153.34363892 29.30504395 152.50969604 29.22875977 151.65048218 C27.02400758 144.91055543 19.49543346 141.66958009 13.7734375 138.25180054 C11.87356759 137.07285976 9.97584211 135.89045745 8.08007812 134.70492554 C5.11014015 132.85021855 2.13523174 131.0165488 -0.88110352 129.23812866 C-17.30667516 119.50883645 -17.30667516 119.50883645 -19.43695068 113.95858765 C-20.28987071 108.88767235 -19.68208502 104.24531401 -18.55078125 99.26742554 C-17.80965088 99.66679321 -17.06852051 100.06616089 -16.30493164 100.47763062 C-14.40826955 101.49825991 -12.50948376 102.51494611 -10.609375 103.52914429 C-7.55078125 105.26742554 -7.55078125 105.26742554 -5.0859375 107.03695679 C-0.41257194 110.35730137 2.73652962 111.62828982 8.50390625 111.07601929 C9.73761963 110.96105103 10.97133301 110.84608276 12.24243164 110.72763062 C13.64494742 110.57656335 15.04719861 110.42302557 16.44921875 110.26742554 C17.21370331 110.18511688 17.97818787 110.10280823 18.76583862 110.01800537 C23.88299545 109.46156153 28.99279173 108.85498391 34.10083008 108.22055054 C36.77386325 107.89092795 39.44832222 107.5751773 42.12304688 107.25961304 C43.85296894 107.04691844 45.58279063 106.8334055 47.3125 106.61898804 C48.48937126 106.48286606 48.48937126 106.48286606 49.6900177 106.34399414 C59.27005127 105.11756889 66.90630887 102.62435942 73.44921875 95.26742554 C77.16788622 89.34079926 77.24610918 83.06816092 76.44921875 76.26742554 C74.71386342 70.08005744 70.7752647 65.74430377 65.44921875 62.26742554 C61.2748855 60.13662477 57.36614065 59.9209524 52.76171875 59.95492554 C51.65546143 59.95685913 51.65546143 59.95685913 50.52685547 59.95883179 C44.92979916 60.05323712 39.57538188 60.77064849 34.07421875 61.76742554 C32.55864958 62.0281669 31.04302627 62.28859387 29.52734375 62.54867554 C27.14453212 62.95852786 24.79760374 63.40922777 22.43359375 63.92367554 C17.55345557 64.56656799 14.649278 63.59434297 10.71875 60.74789429 C7.18532757 57.98067382 3.82732172 55.02896683 0.47900391 52.04232788 C-2.63684775 49.31773785 -5.89921237 46.79435718 -9.17578125 44.26742554 C-15.11999415 39.64778989 -15.11999415 39.64778989 -17.10888672 37.89169312 C-20.1407093 35.21703755 -22.42006492 33.62254493 -26.42578125 32.95492554 C-27.20695312 32.81441772 -27.988125 32.67390991 -28.79296875 32.52914429 C-29.37304688 32.4427771 -29.953125 32.35640991 -30.55078125 32.26742554 C-30.34582031 31.62418335 -30.14085937 30.98094116 -29.9296875 30.31820679 C-27.72464784 22.92235605 -26.96499908 15.97187708 -26.55078125 8.26742554 C-21.27078125 8.26742554 -15.99078125 8.26742554 -10.55078125 8.26742554 C-10.22078125 6.28742554 -9.89078125 4.30742554 -9.55078125 2.26742554 C-5.93875814 -0.14058987 -4.29806395 0.01200767 0 0 Z " fill="#E8F0F1" transform="translate(306.55078125,63.732574462890625)"/>
<path d="M0 0 C1.9500293 -0.02320313 1.9500293 -0.02320313 3.93945312 -0.046875 C5.18533203 -0.04171875 6.43121094 -0.0365625 7.71484375 -0.03125 C9.40081665 -0.02448242 9.40081665 -0.02448242 11.12084961 -0.01757812 C14.80111101 0.62995729 15.77586381 1.58303495 18.0625 4.5 C18.57043457 7.37464905 18.57043457 7.37464905 18.58007812 10.74633789 C18.59268677 12.01188004 18.60529541 13.27742218 18.61828613 14.58131409 C18.61112087 15.96176711 18.60291554 17.34221506 18.59375 18.72265625 C18.59644747 20.14790613 18.60033202 21.57315421 18.60534668 22.99839783 C18.61124321 25.98861171 18.60268354 28.97834762 18.58398438 31.96850586 C18.56133863 35.77238443 18.57422347 39.57512499 18.59827423 43.37896061 C18.61285302 46.32614933 18.60806919 49.27307658 18.59776306 52.22027397 C18.59512135 53.62068254 18.59827405 55.02111598 18.60768127 56.42149544 C18.65389582 65.24427635 17.74886123 72.43460684 14.0625 80.5 C15.8878125 80.4071875 15.8878125 80.4071875 17.75 80.3125 C24.77398738 81.0917236 29.31458307 86.40259519 34.30810547 90.94628906 C37.76926726 94.01153171 41.44279844 96.8113176 45.10546875 99.62963867 C47.66856146 101.60547569 50.15068173 103.57934976 52.55859375 105.74609375 C56.27396338 109.0376066 58.95301099 110.93382617 64 111.125 C69.73060781 110.75734594 75.3586406 109.59768556 81.00317383 108.58422852 C103.06399042 104.80809416 103.06399042 104.80809416 111.421875 110.09765625 C116.99840573 114.86426228 121.5080504 119.82586096 122.3984375 127.33203125 C122.50197819 135.23218554 121.65601377 140.47656246 116.33203125 146.4375 C108.91677203 153.54193997 100.06313872 154.90950551 90.1484375 156.10546875 C89.13455963 156.23440018 88.12068176 156.3633316 87.07608032 156.49617004 C84.94709535 156.76503718 82.81755201 157.02951627 80.6875 157.28979492 C77.43871165 157.68735173 74.19200397 158.09937285 70.9453125 158.51367188 C68.86729393 158.77428751 66.78917209 159.03408134 64.7109375 159.29296875 C63.74723236 159.41480026 62.78352722 159.53663177 61.7906189 159.66215515 C47.59395344 161.38248059 47.59395344 161.38248059 42.00390625 157.875 C41.12412109 157.33359375 40.24433594 156.7921875 39.33789062 156.234375 C38.44263672 155.66203125 37.54738281 155.0896875 36.625 154.5 C35.70267578 153.92765625 34.78035156 153.3553125 33.83007812 152.765625 C31.56516811 151.35739079 29.3102045 149.93547668 27.0625 148.5 C25.64957301 153.96097854 24.82252625 159.15586013 27.0625 164.5 C32.88283706 171.13530776 41.36070473 175.32303597 48.875 179.75 C51.99011668 181.65807811 55.09502136 183.58183822 58.19792175 185.50970459 C60.12728241 186.70035738 62.06579568 187.87633468 64.01411438 189.03570557 C64.89480087 189.56436218 65.77548737 190.0930188 66.68286133 190.63769531 C67.45785477 191.09573547 68.23284821 191.55377563 69.03132629 192.0256958 C71.9494468 194.14378019 73.71484018 196.12193389 74.60635376 199.65574646 C74.68550018 200.43120316 74.76464661 201.20665985 74.84619141 202.00561523 C74.99116562 203.33235512 74.99116562 203.33235512 75.1390686 204.68589783 C75.27519058 206.10788231 75.27519058 206.10788231 75.4140625 207.55859375 C75.51842621 208.53989761 75.62278992 209.52120148 75.73031616 210.53224182 C76.06130979 213.66621802 76.37494742 216.80163594 76.6875 219.9375 C77.0107609 223.06933047 77.33755955 226.20076651 77.66610718 229.33204651 C77.8692119 231.27935024 78.06860181 233.22704592 78.26382446 235.17515564 C78.35416962 236.06280106 78.44451477 236.95044647 78.53759766 237.86499023 C78.65393051 239.02936867 78.65393051 239.02936867 78.77261353 240.2172699 C79.04181731 242.56197269 79.04181731 242.56197269 79.58920288 245.09510803 C80.16909464 248.04162298 80.15796934 250.81228987 80.125 253.8125 C80.11597656 254.88113281 80.10695313 255.94976562 80.09765625 257.05078125 C80.08025391 258.26314453 80.08025391 258.26314453 80.0625 259.5 C80.8875 259.70625 81.7125 259.9125 82.5625 260.125 C91.80338953 263.75534946 98.43941012 270.89322448 102.875 279.625 C105.45309159 285.66557707 106.62000553 291.93188798 106.0625 298.5 C104.75 301.3203125 104.75 301.3203125 103.0625 303.5 C99.87937042 304.56104319 97.54775042 304.652348 94.20166016 304.69287109 C92.99675934 304.70893402 91.79185852 304.72499695 90.55044556 304.74154663 C85.04990857 304.78596854 79.54950176 304.82748295 74.04882812 304.85009766 C71.1445369 304.86344436 68.24094708 304.89131326 65.33691406 304.93212891 C61.82556548 304.9814745 58.31485357 305.00622009 54.80317307 305.01332474 C52.81944895 305.02328493 50.83589467 305.05752084 48.85244751 305.09213257 C38.83635835 305.06856412 38.83635835 305.06856412 35.74365234 302.15478516 C33.65471893 298.85605411 33.26449123 297.33044211 34.0625 293.5 C36.12860429 290.51428588 37.75090449 288.74325574 41.40908813 288.06478882 C44.37495506 287.92035514 47.30100814 287.93848134 50.26953125 288.01171875 C51.89032845 288.02233086 51.89032845 288.02233086 53.54386902 288.03315735 C56.98828945 288.06110153 60.43107255 288.12384367 63.875 288.1875 C66.21286712 288.21258267 68.55075976 288.23539589 70.88867188 288.25585938 C76.61383801 288.31092824 82.33805203 288.39455581 88.0625 288.5 C87.43851318 287.38471924 86.81452637 286.26943848 86.17163086 285.12036133 C85.64514198 284.17934319 85.64514198 284.17934319 85.10801697 283.21931458 C83.85824667 281.16411284 82.4825773 279.71045599 80.625 278.1875 C80.06941406 277.71699219 79.51382813 277.24648438 78.94140625 276.76171875 C74.30538477 273.6485484 69.96175406 273.20851978 64.49609375 273.19140625 C63.02668849 273.16626074 61.55728754 273.14086252 60.08789062 273.11523438 C57.78817735 273.08644798 55.48853837 273.06240678 53.1887207 273.04370117 C50.95747215 273.02203856 48.7270543 272.98262053 46.49609375 272.94140625 C45.4678373 272.94123253 45.4678373 272.94123253 44.41880798 272.9410553 C41.4410245 272.87940168 39.3151963 272.63455492 36.66821289 271.22509766 C34.81930655 269.23872511 34.38984665 268.11246247 33.9375 265.45703125 C33.71658691 264.2337915 33.71658691 264.2337915 33.49121094 262.98583984 C33.27899902 261.66253662 33.27899902 261.66253662 33.0625 260.3125 C32.90297852 259.39936035 32.74345703 258.4862207 32.57910156 257.54541016 C32.057424 254.53279848 31.56034101 251.5166347 31.0625 248.5 C30.68364374 246.29273625 30.30341716 244.0857073 29.921875 241.87890625 C29.20471751 237.68895096 28.49044484 233.49861764 27.796875 229.3046875 C27.65475586 228.44858887 27.51263672 227.59249023 27.36621094 226.71044922 C27.0625 224.5 27.0625 224.5 27.0625 221.5 C26.24523437 221.25507813 25.42796875 221.01015625 24.5859375 220.7578125 C20.43088676 219.27452388 16.60928711 217.38199051 12.6875 215.375 C11.95144531 215.00246094 11.21539062 214.62992188 10.45703125 214.24609375 C8.65699642 213.3343878 6.85948598 212.41770068 5.0625 211.5 C4.81105225 212.32741699 4.55960449 213.15483398 4.30053711 214.00732422 C2.89492168 217.97276188 1.14142543 221.62947566 -0.74609375 225.3828125 C-1.1134816 226.11950165 -1.48086945 226.8561908 -1.85939026 227.61520386 C-2.63321688 229.16421196 -3.40904533 230.71222148 -4.18676758 232.25927734 C-5.37335468 234.62172424 -6.55132776 236.98832685 -7.72851562 239.35546875 C-8.48386201 240.86484016 -9.23970457 242.37396339 -9.99609375 243.8828125 C-10.34619003 244.58705353 -10.69628632 245.29129456 -11.05699158 246.01687622 C-11.98731881 247.85995324 -12.96049241 249.68123727 -13.9375 251.5 C-14.3281665 252.27585449 -14.71883301 253.05170898 -15.12133789 253.85107422 C-20.84133134 259.04435769 -32.31973448 258.27810609 -39.58203125 258.97265625 C-41.54873857 259.16816615 -43.5154456 259.36367905 -45.48213482 259.55937099 C-48.21193284 259.82968291 -50.94219889 260.0950867 -53.67248535 260.3604126 C-58.4722827 260.82730633 -63.27159731 261.29905697 -68.07048035 261.7752533 C-70.61990261 262.02773427 -73.16962988 262.27715806 -75.71968079 262.52320862 C-76.8715538 262.63680222 -78.02342682 262.75039581 -79.21020508 262.86743164 C-80.22230545 262.96576797 -81.23440582 263.06410431 -82.2771759 263.16542053 C-84.5967772 263.45714851 -86.72417688 263.75010011 -88.9375 264.5 C-90.41237036 266.53522808 -90.41237036 266.53522808 -91.625 269.0625 C-97.70518034 279.67628114 -106.47012621 284.70079532 -118.01171875 288.11328125 C-122.57363438 289.02936573 -127.26565748 289.37771732 -131.4375 287.1875 C-134.28123229 283.98830118 -134.080903 280.72386094 -134.13037109 276.63916016 C-134.14643402 275.43425934 -134.16249695 274.22935852 -134.17904663 272.98794556 C-134.22346854 267.48740857 -134.26498295 261.98700176 -134.28759766 256.48632812 C-134.30094436 253.5820369 -134.32881326 250.67844708 -134.36962891 247.77441406 C-134.4189745 244.26306548 -134.44372009 240.75235357 -134.45082474 237.24067307 C-134.46078493 235.25694895 -134.49502084 233.27339467 -134.52963257 231.28994751 C-134.50875275 222.41646588 -134.50875275 222.41646588 -131.86376953 218.1730957 C-128.17505607 216.0640724 -125.8369262 215.9303937 -121.59375 216.00390625 C-120.11775819 216.00646626 -118.64176501 216.00830773 -117.16577148 216.00952148 C-116.39401581 216.01893768 -115.62226013 216.02835388 -114.82711792 216.03805542 C-97.98753182 216.21031585 -82.70204761 214.15991108 -66.36889648 210.03491211 C-63.9375 209.5 -63.9375 209.5 -60.9375 209.5 C-60.76734375 208.25089844 -60.5971875 207.00179687 -60.421875 205.71484375 C-59.77334472 201.01550761 -59.09391445 196.32117059 -58.39941406 191.62841797 C-58.08945649 189.52915989 -57.78417619 187.42920628 -57.48339844 185.32861328 C-57.03144941 182.21534656 -56.55048712 179.10779938 -56.0625 176 C-55.92553711 175.02796631 -55.78857422 174.05593262 -55.64746094 173.05444336 C-55.49825195 172.13928955 -55.34904297 171.22413574 -55.1953125 170.28125 C-55.0730127 169.47751953 -54.95071289 168.67378906 -54.82470703 167.84570312 C-53.42359691 164.14128208 -52.25937545 162.77506282 -48.9375 160.5 C-44.47023898 159.79981377 -40.05474624 159.91965852 -35.54296875 160.01171875 C-33.58923088 160.02233086 -33.58923088 160.02233086 -31.59602356 160.03315735 C-28.14486116 160.05218487 -24.69476261 160.10124561 -21.24401855 160.15667725 C-17.71816396 160.20796351 -14.19213627 160.23069117 -10.66601562 160.25585938 C-3.75607531 160.30937102 3.15316117 160.39463028 10.0625 160.5 C10.03631592 159.61739502 10.01013184 158.73479004 9.9831543 157.82543945 C9.89769725 154.5358842 9.83514255 151.24751578 9.7878418 147.95727539 C9.76276853 146.53618709 9.72870001 145.11522687 9.68530273 143.69458008 C9.62432142 141.64632538 9.59622238 139.59978117 9.57421875 137.55078125 C9.54803467 136.32012939 9.52185059 135.08947754 9.49487305 133.8215332 C10.23249586 129.50525003 11.54202672 128.04872475 15.0625 125.5 C20.27129124 124.52392561 23.21341857 126.42257339 27.53515625 129.21875 C28.77744572 129.99436971 30.02030341 130.76907991 31.26367188 131.54296875 C33.19064542 132.7628565 35.11100246 133.99087015 37.02124023 135.23681641 C45.79866629 140.92456118 52.36506219 143.80132432 63.0625 142.5 C64.56643661 142.35197832 66.07060502 142.20629996 67.57495117 142.0625 C71.74661887 141.64098783 75.9019327 141.13061494 80.05883789 140.58349609 C82.64988722 140.24676568 85.24336112 139.93752923 87.83789062 139.62890625 C89.49760978 139.41572159 91.15712437 139.20093677 92.81640625 138.984375 C93.9710714 138.85128937 93.9710714 138.85128937 95.14906311 138.71551514 C98.56273465 138.24136419 100.79328102 137.70509414 103.55834961 135.59863281 C105.59208715 132.76110515 105.42616913 130.91848982 105.0625 127.5 C104.7325 126.51 104.4025 125.52 104.0625 124.5 C95.12775654 124.20453484 86.68923159 125.09200618 77.875 126.5 C57.25141347 129.76273737 57.25141347 129.76273737 51.68359375 126.55078125 C50.60400897 125.65984393 49.54333913 124.74562167 48.5 123.8125 C47.91774658 123.32426758 47.33549316 122.83603516 46.7355957 122.33300781 C45.48662519 121.28517494 44.24483966 120.22872802 43.00976562 119.16455078 C40.31912481 116.86455215 37.56794636 114.64305593 34.81469727 112.41870117 C32.85330234 110.8334896 30.90105291 109.23758022 28.94921875 107.640625 C28.34879257 107.16573639 27.74836639 106.69084778 27.12974548 106.2015686 C25.0625 104.5 25.0625 104.5 23.2081604 102.6934967 C16.57411492 96.64197071 10.72871238 96.48964171 2.01171875 96.60546875 C0.64137845 96.6011168 -0.72895603 96.59435805 -2.09927368 96.58535767 C-5.7359173 96.57279809 -9.37043669 96.6088209 -13.00669479 96.65930557 C-15.25264074 96.68753319 -17.49832542 96.70276934 -19.74441528 96.71420288 C-37.23941861 96.814436 -54.60494825 97.232558 -71.875 100.3125 C-72.60707672 100.44256439 -73.33915344 100.57262878 -74.09341431 100.70663452 C-82.39813097 101.87021286 -82.39813097 101.87021286 -88.9375 106.5 C-89.95533671 108.47714338 -89.95533671 108.47714338 -90.74682617 110.70849609 C-91.06693161 111.55302338 -91.38703705 112.39755066 -91.71684265 113.26766968 C-92.05133926 114.17707306 -92.38583588 115.08647644 -92.73046875 116.0234375 C-93.08136063 116.96176422 -93.4322525 117.90009094 -93.79377747 118.86685181 C-94.53317148 120.85080396 -95.26839774 122.83631366 -95.99975586 124.82324219 C-97.11977339 127.86082499 -98.25713896 130.89149679 -99.39648438 133.921875 C-100.11303349 135.85117125 -100.82856249 137.78084674 -101.54296875 139.7109375 C-101.88353806 140.61629242 -102.22410736 141.52164734 -102.57499695 142.45443726 C-103.04097038 143.73068466 -103.04097038 143.73068466 -103.51635742 145.03271484 C-103.79154709 145.77645355 -104.06673676 146.52019226 -104.3502655 147.28646851 C-105.02185036 149.81795164 -105.17520642 151.89216734 -104.9375 154.5 C-103.06001498 156.74949098 -103.06001498 156.74949098 -100.10546875 157.0546875 C-96.66798995 156.80473685 -96.66798995 156.80473685 -94.55078125 153.6328125 C-93.76199913 152.30966137 -92.99648469 150.9724668 -92.25 149.625 C-91.62532837 148.56514893 -91.62532837 148.56514893 -90.98803711 147.48388672 C-90.09350209 145.96561638 -89.20781016 144.44210837 -88.33007812 142.9140625 C-85.94627508 138.78169144 -83.47166905 134.70517621 -81 130.625 C-80.53956299 129.84656738 -80.07912598 129.06813477 -79.60473633 128.26611328 C-79.1692749 127.54149902 -78.73381348 126.81688477 -78.28515625 126.0703125 C-77.90367432 125.42852051 -77.52219238 124.78672852 -77.12915039 124.12548828 C-75.9375 122.5 -75.9375 122.5 -72.9375 120.5 C-68.82929265 120.11401927 -64.72064945 120.17082307 -60.59570312 120.18432617 C-58.57626999 120.18747851 -56.55831375 120.16404802 -54.5390625 120.13867188 C-52.6209375 120.13770508 -52.6209375 120.13770508 -50.6640625 120.13671875 C-48.90956787 120.13224731 -48.90956787 120.13224731 -47.11962891 120.12768555 C-43.62050509 120.53708894 -41.74052929 121.40331875 -38.9375 123.5 C-37.53696494 126.30107012 -37.7299496 128.68891681 -37.6875 131.8125 C-37.66171875 132.94300781 -37.6359375 134.07351562 -37.609375 135.23828125 C-37.9689574 138.81270151 -38.79727877 140.64810326 -40.9375 143.5 C-43.74665474 144.90457737 -45.82560534 144.74895157 -48.9375 144.5 C-51.25 143.3125 -51.25 143.3125 -52.9375 141.5 C-53.4325 139.025 -53.4325 139.025 -53.9375 136.5 C-57.8975 136.5 -61.8575 136.5 -65.9375 136.5 C-66.5975 138.15 -67.2575 139.8 -67.9375 141.5 C-70.08929351 145.40395251 -72.43266192 149.19243527 -74.75 153 C-75.67522461 154.54880859 -75.67522461 154.54880859 -76.61914062 156.12890625 C-81.00548582 163.3540232 -85.49816628 170.63062653 -93.9375 173.5 C-101.30607024 174.50480503 -107.87302773 174.04130249 -113.9375 169.5 C-119.0869583 164.4649741 -122.01622989 158.7351892 -122.27416992 151.50683594 C-122.17696215 145.31243102 -119.93771387 139.92435431 -117.73828125 134.203125 C-117.30621872 133.05132751 -116.87415619 131.89953003 -116.42900085 130.71282959 C-115.51567543 128.28968987 -114.59493998 125.86933163 -113.66723633 123.45166016 C-112.2520924 119.75546512 -110.86777276 116.04874632 -109.48632812 112.33984375 C-108.59296773 109.98108 -107.69784494 107.62298283 -106.80078125 105.265625 C-106.38911209 104.16035461 -105.97744293 103.05508423 -105.55329895 101.9163208 C-101.54404146 91.57668064 -101.54404146 91.57668064 -96.9375 88.5 C-93.48995393 87.38371832 -90.02629382 86.80783103 -86.44921875 86.26171875 C-85.43205276 86.09122513 -84.41488678 85.92073151 -83.36689758 85.74507141 C-81.21920722 85.38887719 -79.06989654 85.0423355 -76.91918945 84.70483398 C-73.64356791 84.19041599 -70.37363917 83.64778891 -67.10351562 83.09960938 C-65.01068907 82.75614852 -62.91759737 82.41429861 -60.82421875 82.07421875 C-59.36758064 81.83526131 -59.36758064 81.83526131 -57.8815155 81.59147644 C-52.493176 80.75178593 -47.39061002 80.33837587 -41.9375 80.5 C-42.22044922 79.92636719 -42.50339844 79.35273437 -42.79492188 78.76171875 C-46.48101539 70.22345645 -46.55089847 62.1739099 -46.45898438 53.0390625 C-46.43753584 50.50423536 -46.45887064 47.97224133 -46.484375 45.4375 C-46.50825536 32.04710292 -44.50367801 21.52080825 -34.9375 11.5 C-24.67460137 1.70271492 -13.83703278 -0.16814622 0 0 Z " fill="#333333" transform="translate(261.9375,15.5)"/>
<path d="M0 0 C49.5 0 99 0 150 0 C151.65 3.96 153.3 7.92 155 12 C159.56581537 19.90237276 164.69321966 26.43089258 171 33 C171.67160156 33.72316406 172.34320313 34.44632812 173.03515625 35.19140625 C177.10200796 39.45230257 181.30449451 42.76646872 186.3125 45.87109375 C186.869375 46.24363281 187.42625 46.61617188 188 47 C188 47.33 188 47.66 188 48 C113.42 48 38.84 48 -38 48 C-36.35 46.68 -34.7 45.36 -33 44 C-29.93909263 41.27687669 -26.92678008 38.50745953 -23.92578125 35.71875 C-22.29310809 34.20160645 -20.65195619 32.69302132 -18.98046875 31.21875 C-9.73992673 22.73562946 -4.74065998 11.37758395 0 0 Z " fill="#CFD7D9" transform="translate(181,400)"/>
<path d="M0 0 C0.80232056 -0.00004028 1.60464111 -0.00008057 2.43127441 -0.00012207 C4.12239443 0.00522359 5.8135146 0.02276578 7.50439453 0.05175781 C10.08573724 0.09362006 12.66446867 0.09282315 15.24609375 0.0859375 C16.89324721 0.09643096 18.54038728 0.10936992 20.1875 0.125 C21.3392572 0.12530212 21.3392572 0.12530212 22.51428223 0.12561035 C27.02599744 0.22473308 30.01087988 0.78722566 33.59375 3.59375 C34.87552179 6.15729359 34.72540868 7.97847652 34.73419189 10.84980774 C34.73990204 11.96441376 34.74561218 13.07901978 34.75149536 14.22740173 C34.75261322 15.45600418 34.75373108 16.68460663 34.75488281 17.95043945 C34.76233017 19.88466766 34.76233017 19.88466766 34.76992798 21.85797119 C34.7830606 25.40146338 34.78949874 28.94493661 34.79393864 32.48844934 C34.79686831 34.70197509 34.80097294 36.91549564 34.80544281 39.12901878 C34.81912075 46.05363768 34.82878564 52.97824472 34.8326447 59.9028762 C34.83712469 67.89800225 34.85466846 75.89295726 34.8836453 83.8880313 C34.90526096 90.06644616 34.91534894 96.24481289 34.91668582 102.42326516 C34.91773405 106.11396777 34.92364528 109.80450968 34.94150543 113.4951725 C34.96104536 117.61317953 34.95669763 121.73082871 34.95019531 125.84887695 C34.96401749 127.68267159 34.96401749 127.68267159 34.9781189 129.55351257 C34.97254974 130.67657806 34.96698059 131.79964355 34.96124268 132.95674133 C34.96270924 133.93032247 34.9641758 134.9039036 34.9656868 135.90698719 C34.51959073 139.12945492 33.54361619 141.00469219 31.59375 143.59375 C27.8240619 144.8503127 24.27657257 144.77550362 20.34765625 144.796875 C19.54013412 144.80257507 18.732612 144.80827515 17.90061951 144.81414795 C16.19344388 144.82358834 14.48625011 144.83012812 12.77905273 144.83398438 C10.16943625 144.8437009 7.56060393 144.8747369 4.95117188 144.90625 C3.29167134 144.91277933 1.63216518 144.91803007 -0.02734375 144.921875 C-0.80661728 144.9342218 -1.58589081 144.9465686 -2.38877869 144.95928955 C-5.62902164 144.94598287 -7.99008795 144.81914875 -10.86743164 143.26074219 C-13.67610888 140.21811992 -13.53754658 137.1583602 -13.56015015 133.21743774 C-13.56875061 132.10145706 -13.57735107 130.98547638 -13.58621216 129.8356781 C-13.59047211 128.61067093 -13.59473206 127.38566376 -13.59912109 126.12353516 C-13.60729858 124.83390366 -13.61547607 123.54427216 -13.62390137 122.21556091 C-13.65008967 117.93799929 -13.66542315 113.66042802 -13.6796875 109.3828125 C-13.68504799 107.90974293 -13.6904255 106.43667342 -13.69581985 104.96360397 C-13.71744153 98.83683686 -13.73617901 92.71007235 -13.74744225 86.58327675 C-13.76368859 77.80402164 -13.7968905 69.02520856 -13.85384309 60.2461201 C-13.89253174 54.07193481 -13.91207347 47.89786783 -13.91736281 41.72356451 C-13.92101706 38.03609607 -13.93304543 34.34909945 -13.96546555 30.66176224 C-14.00111379 26.54849142 -13.99717818 22.43617244 -13.98974609 18.32275391 C-14.00615143 17.1017952 -14.02255676 15.88083649 -14.03945923 14.62287903 C-13.97852183 6.40640052 -13.97852183 6.40640052 -11.11257935 2.3366394 C-7.44421912 -0.02580262 -4.22676177 -0.09025193 0 0 Z " fill="#323232" transform="translate(429.40625,167.40625)"/>
<path d="M0 0 C2.93673424 -0.0454451 5.86981978 -0.12254505 8.80499268 -0.22814941 C36.06569308 -1.15733609 36.06569308 -1.15733609 46.26199341 7.87445068 C48.09338162 9.66365079 49.84055003 11.49255266 51.55453491 13.3941803 C54.35722085 16.33819364 57.570646 18.72958964 60.80886841 21.17132568 C66.81818635 25.80133615 66.81818635 25.80133615 69.57449341 28.18304443 C74.38905588 32.24888558 78.00089663 32.64072208 84.24636841 32.17132568 C90.13829473 31.46249202 95.99241782 30.51654621 101.85379028 29.59320068 C120.07989376 26.83017471 120.07989376 26.83017471 124.87136841 29.79632568 C126.69465518 32.9456392 126.90509291 34.58493672 126.24636841 38.17132568 C123.02843931 42.31429236 120.42010217 43.77827546 115.21963501 44.50013733 C114.45501953 44.5836998 113.69040405 44.66726227 112.90261841 44.75335693 C112.0970752 44.85726242 111.29153198 44.96116791 110.46157837 45.06822205 C108.7582717 45.28378818 107.05363879 45.48909301 105.34793091 45.68475342 C102.77949372 45.98001764 100.2165259 46.30602938 97.65261841 46.63812256 C93.57810475 47.15317685 89.50172417 47.58791961 85.41217041 47.96459961 C83.48981289 48.14808888 81.57153618 48.37326631 79.65432739 48.60443115 C69.84384311 49.32602194 63.19132086 44.81262916 55.30886841 39.67132568 C53.39587923 38.4478434 51.47828825 37.23343237 49.5504303 36.0335083 C47.81665261 34.9510294 46.09941741 33.84218517 44.3833313 32.73187256 C40.91633676 31.00714464 39.05660454 30.52533456 35.24636841 31.17132568 C32.7656238 32.62313935 32.7656238 32.62313935 31.24636841 35.17132568 C30.60493513 38.45248644 30.60493513 38.45248644 30.63699341 42.12445068 C30.60637817 43.33262451 30.57576294 44.54079834 30.54421997 45.7855835 C30.52842896 47.31537842 30.51263794 48.84517334 30.49636841 50.42132568 C30.41386841 55.28882568 30.33136841 60.15632568 30.24636841 65.17132568 C11.76636841 65.17132568 -6.71363159 65.17132568 -25.75363159 65.17132568 C-25.75363159 59.89132568 -25.75363159 54.61132568 -25.75363159 49.17132568 C-23.77363159 48.18132568 -21.79363159 47.19132568 -19.75363159 46.17132568 C-18.63732952 42.82241947 -18.58597735 40.19593308 -18.56613159 36.67132568 C-18.5519519 35.52663818 -18.53777222 34.38195068 -18.52316284 33.20257568 C-18.51814102 29.99370184 -18.51814102 29.99370184 -20.75363159 27.17132568 C-25.73879822 25.50960347 -30.92904129 25.90708492 -36.15036011 25.87615967 C-37.50918981 25.86461799 -38.8679734 25.84413115 -40.22653198 25.81463623 C-42.19226835 25.77197019 -44.158568 25.75839514 -46.12472534 25.74554443 C-47.29962524 25.73096191 -48.47452515 25.71637939 -49.68502808 25.70135498 C-53.50399323 26.28624701 -54.41614748 27.137373 -56.75363159 30.17132568 C-58.2399153 32.44674944 -59.64499635 34.70987165 -61.01144409 37.05413818 C-61.5951326 38.0373555 -61.5951326 38.0373555 -62.19061279 39.04043579 C-63.42563309 41.12243347 -64.65263651 43.20900283 -65.87863159 45.29632568 C-67.1128058 47.39014286 -68.34870165 49.48289405 -69.58807373 51.57363892 C-70.35707326 52.87161188 -71.12291982 54.17145922 -71.88525391 55.47335815 C-73.35844931 57.96562015 -74.69716948 60.11486358 -76.75363159 62.17132568 C-79.81978542 62.49751226 -81.92181446 62.60065065 -84.69113159 61.17132568 C-86.69632695 57.3968403 -85.23620913 52.7872029 -84.05960083 48.84741211 C-83.1715418 46.30355145 -82.22957728 43.78736015 -81.26144409 41.27288818 C-80.91483734 40.35671722 -80.56823059 39.44054626 -80.21112061 38.49661255 C-79.4808508 36.57383609 -78.74608452 34.65276196 -78.00704956 32.7333374 C-76.87597794 29.78941883 -75.76519849 26.83837935 -74.65597534 23.88616943 C-73.94233483 22.01461643 -73.22753181 20.14350621 -72.51144409 18.27288818 C-72.18008453 17.38960846 -71.84872498 16.50632874 -71.50732422 15.59628296 C-71.0320076 14.37393448 -71.0320076 14.37393448 -70.54708862 13.12689209 C-70.27252838 12.40933746 -69.99796814 11.69178284 -69.71508789 10.95248413 C-68.19651291 8.13922818 -66.1256692 7.2827167 -63.1557312 6.39349365 C-42.30110277 1.7089967 -21.31479383 0.32672122 0 0 Z " fill="#48C8E2" transform="translate(241.75363159179688,110.82867431640625)"/>
<path d="M0 0 C4.46840479 2.50458358 8.01551812 5.53020885 10.6875 9.9375 C11.04381294 11.2648771 11.38015307 12.59793785 11.6875 13.9375 C12.857942 13.93473462 14.028384 13.93196924 15.23429394 13.92912006 C43.01275492 13.86415882 70.79120999 13.81468462 98.56973098 13.78430401 C101.98813784 13.78055185 105.40654455 13.77666889 108.82495117 13.77270508 C109.8457741 13.77152468 109.8457741 13.77152468 110.8872197 13.77032044 C121.90929439 13.75726341 132.93132218 13.73360794 143.95336904 13.70604161 C155.26142292 13.67799567 166.56945335 13.66155004 177.87754375 13.65523452 C184.22980242 13.65131823 190.58195468 13.64209246 196.93417931 13.62030983 C202.91030343 13.59998249 208.88627707 13.59365864 214.86243248 13.59817696 C217.0582562 13.59735008 219.25408482 13.59136223 221.44987869 13.57988358 C224.44359383 13.56499839 227.43673785 13.56853206 230.4304657 13.57673645 C231.3030377 13.56799793 232.17560971 13.5592594 233.07462329 13.55025607 C237.76130279 13.58506742 240.89054998 13.87065047 244.6875 16.9375 C246.09207737 19.74665474 245.93645157 21.82560534 245.6875 24.9375 C243.90765595 28.0734157 243.16441793 28.77852736 239.6875 29.9375 C236.67419604 30.03184849 233.68429459 30.06774694 230.67097473 30.05775452 C229.73736152 30.05860894 228.80374831 30.05946337 227.84184378 30.06034368 C224.7002887 30.06199633 221.55878652 30.0564806 218.41723633 30.05102539 C216.17051698 30.05074345 213.92379754 30.05090139 211.67707825 30.0514679 C205.56587252 30.05175559 199.4546863 30.04586338 193.34348512 30.03889394 C186.96130614 30.03265574 180.57912675 30.03205623 174.19694519 30.03086853 C163.48098345 30.02811048 152.76503027 30.02185818 142.04907227 30.01293945 C131.01098669 30.00376217 119.97290307 29.99668288 108.93481445 29.99243164 C108.25456763 29.99216892 107.57432081 29.99190619 106.87346045 29.99163551 C103.46090412 29.99033048 100.04834777 29.98906677 96.63579142 29.98782361 C68.31968934 29.97745481 40.00359505 29.95976555 11.6875 29.9375 C11.39705811 30.88077148 11.10661621 31.82404297 10.80737305 32.79589844 C8.95979435 37.97894677 5.05931221 40.78168854 0.6875 43.9375 C-5.23382443 46.52135066 -12.2156479 47.10171337 -18.484375 45.3203125 C-23.96952644 42.91790121 -27.98661875 38.87330058 -31.3125 33.9375 C-31.6768378 32.61230309 -32.01496809 31.27927631 -32.3125 29.9375 C-32.96538498 29.94860306 -33.61826996 29.95970612 -34.29093933 29.97114563 C-41.08778195 30.08178563 -47.88436868 30.15718702 -54.68188477 30.2121582 C-57.2184488 30.23729839 -59.75494042 30.27141537 -62.29125977 30.31469727 C-65.93784451 30.37536661 -69.58347132 30.40371574 -73.23046875 30.42578125 C-74.36397263 30.45158768 -75.4974765 30.4773941 -76.66532898 30.50398254 C-84.53109274 30.50678304 -84.53109274 30.50678304 -88.52856445 27.59448242 C-90.3125 24.9375 -90.3125 24.9375 -90.9375 21.9375 C-90.05278895 17.69088695 -88.83625717 16.50468269 -85.3125 13.9375 C-81.28250069 13.23646171 -77.31008782 13.35633826 -73.23046875 13.44921875 C-72.06115311 13.45629349 -70.89183746 13.46336823 -69.68708801 13.47065735 C-65.9574042 13.49861506 -62.22922903 13.56136128 -58.5 13.625 C-55.96942274 13.65008085 -53.43882192 13.67289439 -50.90820312 13.69335938 C-44.70912187 13.74844654 -38.51091872 13.83208878 -32.3125 13.9375 C-32.0235083 12.99422852 -31.7345166 12.05095703 -31.43676758 11.07910156 C-30.16566096 7.52717975 -28.84220504 6.11412212 -26 3.6875 C-25.24074219 3.02234375 -24.48148437 2.3571875 -23.69921875 1.671875 C-16.51950174 -3.54546437 -7.95051723 -3.65099281 0 0 Z " fill="#323232" transform="translate(186.3125,322.0625)"/>
<path d="M0 0 C0.66944261 -0.00623996 1.33888523 -0.01247993 2.02861398 -0.01890898 C4.27109788 -0.03485917 6.51249774 -0.02222758 8.75498962 -0.00964355 C10.36333348 -0.01506418 11.97167236 -0.02218651 13.58000183 -0.03088379 C17.95032242 -0.04913757 22.32026572 -0.04203853 26.690593 -0.02936745 C31.26988442 -0.01923818 35.84914359 -0.02863406 40.42843628 -0.03491211 C48.12637622 -0.04219388 55.82416281 -0.03259233 63.52207947 -0.0135498 C72.40276388 0.00816591 81.28308018 0.00120843 90.16375548 -0.02085543 C97.79794703 -0.03905908 105.43202826 -0.04154194 113.06623453 -0.03110075 C117.62117338 -0.02488605 122.17593983 -0.02397305 126.73086739 -0.0372467 C131.02132319 -0.04887504 135.31130954 -0.04065319 139.60171509 -0.01766968 C141.16933351 -0.01241729 142.73699199 -0.01383629 144.30459404 -0.02272034 C157.75878741 -0.09188664 168.34979886 1.98151016 178.32896423 11.50793457 C188.31005847 21.96337784 189.92976408 33.15499064 189.84654236 47.10534668 C189.85197354 48.64726418 189.85910175 50.18917648 189.86778259 51.7310791 C189.88589006 55.88565399 189.87900388 60.03982797 189.86626625 64.19440913 C189.85608567 68.55271725 189.86554471 72.91099279 189.87181091 77.26930237 C189.87906725 84.57815679 189.86954703 91.88684896 189.85044861 99.19567871 C189.82862658 107.64437789 189.83577777 116.09269172 189.85775423 124.54138178 C189.87589779 131.80788152 189.87847341 139.07426525 189.86799955 146.34078032 C189.86176618 150.675742 189.86092581 155.01052232 189.87414551 159.34547234 C189.88569027 163.41440058 189.87770401 167.48283011 189.85456848 171.55170441 C189.84927642 173.04486576 189.85080372 174.53806905 189.85961914 176.03121376 C189.87053518 178.06766391 189.8544242 180.10420574 189.8368988 182.14060974 C189.8353907 183.28040755 189.8338826 184.42020536 189.8323288 185.5945425 C189.2143016 189.17158322 188.21292437 190.35929473 185.32896423 192.50793457 C181.57546962 192.9771214 179.2904797 193.03929838 175.95396423 191.19543457 C172.87628674 187.99938487 173.20243949 184.63947236 173.19766235 180.43049622 C173.19165009 178.52322502 173.19165009 178.52322502 173.18551636 176.5774231 C173.18599146 175.16534422 173.18652757 173.75326536 173.18711853 172.34118652 C173.18408685 170.85620521 173.18056537 169.37122482 173.17658997 167.88624573 C173.16870004 164.68599151 173.16355564 161.48574844 173.1602993 158.28548622 C173.15438753 153.22126991 173.13784465 148.15712383 173.11895752 143.09294128 C173.11262 141.35869698 173.10629438 139.62445263 173.09998035 137.89020824 C173.09681454 137.02163421 173.09364873 136.15306018 173.09038699 135.25816572 C173.04832786 123.46814351 173.01534621 111.67815374 173.0030365 99.88806152 C172.99464848 91.93583442 172.97212919 83.98378095 172.93368083 76.03164071 C172.91394267 71.82497692 172.90150805 67.61857256 172.90651512 63.41185951 C172.91117159 59.45135475 172.89730215 55.4913411 172.86950302 51.53093529 C172.8626076 50.08139534 172.86244692 48.63180443 172.86970329 47.18226624 C172.9109523 38.01257683 172.56969642 31.43542501 166.39927673 24.26574707 C165.75732361 23.72691895 165.11537048 23.18809082 164.45396423 22.63293457 C163.81716736 22.0786377 163.18037048 21.52434082 162.52427673 20.95324707 C157.78446184 17.83272837 153.13909947 17.2574475 147.56013489 17.24964905 C146.90446222 17.24597334 146.24878956 17.24229764 145.57324803 17.23851055 C143.39001424 17.22858037 141.20703764 17.23267123 139.02378845 17.23669434 C137.45305614 17.23230456 135.88232615 17.22700149 134.31159973 17.22085571 C130.93621778 17.20937677 127.56089843 17.20389787 124.18549728 17.20297432 C118.84907588 17.20103106 113.51278385 17.18296543 108.17640686 17.16221619 C94.92557831 17.11306961 81.6747148 17.08211722 68.42381287 17.06091309 C58.11800292 17.04439941 47.81230431 17.02162419 37.50656903 16.97789234 C32.20053166 16.95609329 26.8947057 16.94806013 21.58862662 16.95028508 C18.29097686 16.94862046 14.99346571 16.93458577 11.69586563 16.9170723 C10.1656215 16.91146509 8.63534873 16.91099464 7.10510254 16.9160099 C5.01769228 16.92213475 2.93116004 16.90995126 0.84382629 16.89320374 C-0.32458864 16.89119241 -1.49300358 16.88918108 -2.69682503 16.8871088 C-5.96586441 16.47034765 -7.33963213 15.79496639 -9.67103577 13.50793457 C-10.42103577 11.38684082 -10.42103577 11.38684082 -10.67103577 9.07043457 C-10.82572327 7.92768066 -10.82572327 7.92768066 -10.98353577 6.76184082 C-10.13580465 0.64758014 -5.3011916 0.00666899 0 0 Z " fill="#323232" transform="translate(306.67103576660156,63.4920654296875)"/>
<path d="M0 0 C1.40731688 -0.00432904 2.81462844 -0.01084509 4.22192621 -0.01936007 C8.08913977 -0.0363719 11.95570705 -0.02215673 15.82288671 -0.00284529 C19.99337486 0.01256518 24.16378297 -0.00081586 28.33427429 -0.0105896 C36.50423631 -0.02512735 44.67395012 -0.01287092 52.84388864 0.00852364 C62.35475031 0.03251686 71.86555489 0.0308203 81.37644011 0.02821773 C98.34439547 0.02452621 115.31223377 0.04536474 132.28015137 0.07946777 C148.75121011 0.11255998 165.22214598 0.12672622 181.6932373 0.1204834 C199.62196652 0.11372155 217.55064422 0.11617379 235.47936583 0.1358428 C236.90106758 0.13740203 236.90106758 0.13740203 238.35149059 0.13899276 C240.2551878 0.14108368 242.15888499 0.14319465 244.06258217 0.14532593 C250.69474601 0.1522257 257.32689399 0.15289014 263.95906067 0.15144348 C272.03963572 0.15000475 280.12011048 0.15967684 288.20065224 0.18338984 C292.32479028 0.19526153 296.4487884 0.20236724 300.57294273 0.19655228 C304.34674946 0.19138846 308.12026037 0.20004006 311.89401644 0.21982688 C313.90918971 0.22682775 315.92439741 0.21910876 317.93956614 0.21090555 C319.13427577 0.21996219 320.32898541 0.22901883 321.55989838 0.23834991 C323.10680052 0.24070672 323.10680052 0.24070672 324.68495321 0.24311113 C327.94938363 0.6839418 329.84083709 1.68896945 332.48669434 3.62145996 C333.80898623 6.26604375 333.58346628 8.29907297 333.54919434 11.24645996 C333.5401709 12.24935059 333.53114746 13.25224121 333.52185059 14.28552246 C333.50444824 15.44181152 333.50444824 15.44181152 333.48669434 16.62145996 C332.44417385 16.62292652 331.40165337 16.62439308 330.32754135 16.62590408 C304.98168115 16.66246996 279.63595339 16.72188121 254.29020309 16.8053627 C242.0332695 16.84520243 229.77640057 16.87756984 217.51940918 16.89245605 C206.83844488 16.90544701 196.15762256 16.93234615 185.47673821 16.97607303 C179.81924577 16.99874538 174.16192882 17.01436719 168.5043869 17.01334381 C163.18230085 17.01260061 157.8606036 17.03041435 152.53861809 17.06262779 C150.5826717 17.07116549 148.6266819 17.07285065 146.67072487 17.06726265 C144.00481692 17.06065931 141.3401594 17.07845447 138.67437744 17.10247803 C137.50706073 17.0908374 137.50706073 17.0908374 136.31616187 17.07896161 C132.82988801 17.1347717 130.85971417 17.34047459 128.03746414 19.46639633 C126.31878563 21.6294614 126.31878563 21.6294614 125.48669434 24.62145996 C120.20669434 24.62145996 114.92669434 24.62145996 109.48669434 24.62145996 C108.49669434 22.64145996 107.50669434 20.66145996 106.48669434 18.62145996 C103.53102039 17.63623531 101.5780928 17.48542686 98.49433899 17.46324158 C97.4636882 17.45345276 96.43303741 17.44366394 95.37115479 17.43357849 C94.24115051 17.42782303 93.11114624 17.42206757 91.94689941 17.4161377 C90.75652573 17.4062381 89.56615204 17.3963385 88.33970642 17.38613892 C85.07553799 17.3599469 81.81137473 17.33808656 78.54716325 17.31813693 C75.13584147 17.29626901 71.72456413 17.26888426 68.3132782 17.24208069 C61.85352999 17.19216471 55.39375709 17.14722182 48.93396062 17.10405833 C41.57970906 17.05467659 34.22550209 16.99976193 26.87129366 16.94437873 C11.74313545 16.8305755 -3.38506477 16.72373284 -18.51330566 16.62145996 C-18.6494048 14.89451321 -18.74579794 13.16441274 -18.82580566 11.43395996 C-18.88381348 10.47103027 -18.94182129 9.50810059 -19.00158691 8.51599121 C-18.51330566 5.62145996 -18.51330566 5.62145996 -16.83835602 2.79701996 C-11.52391791 -0.68018421 -6.21575837 -0.05944806 0 0 Z " fill="#CFD7D9" transform="translate(98.5133056640625,463.3785400390625)"/>
<path d="M0 0 C36.63284557 -3.74437012 61.38282352 -1.57527076 90.68359375 21.77734375 C97.46494706 27.37560663 99.16907889 29.29202534 100.19140625 38.22265625 C100.30097153 39.15669785 100.4105368 40.09073944 100.52342224 41.05308533 C100.75499433 43.03766259 100.98434271 45.02250038 101.21166992 47.00756836 C101.55831312 50.02604177 101.91437669 53.04329583 102.27148438 56.06054688 C102.49536593 57.98951677 102.71869054 59.9185514 102.94140625 61.84765625 C103.10075401 63.19187401 103.10075401 63.19187401 103.26332092 64.56324768 C103.8493345 69.74769665 104.10257188 74.78245974 104 80 C99.05 80 94.1 80 89 80 C87.57762212 74.58539548 86.47504566 69.23457989 85.6328125 63.703125 C85.38489153 62.15221935 85.13617034 60.60144145 84.88671875 59.05078125 C84.50180029 56.64023557 84.12186252 54.22933903 83.75537109 51.81591797 C83.39601369 49.46319793 83.01618416 47.11453505 82.6328125 44.765625 C82.52848907 44.0457843 82.42416565 43.3259436 82.31668091 42.58428955 C81.56584171 38.11633942 80.63595719 35.73597918 77 33 C74.78750627 31.69652212 72.61940129 30.50549862 70.328125 29.36328125 C69.36625275 28.87591743 69.36625275 28.87591743 68.38494873 28.37870789 C67.03211152 27.69656875 65.67718241 27.0185643 64.3203125 26.34448242 C62.26313736 25.31904854 60.21753494 24.2727886 58.171875 23.22460938 C56.84960871 22.56120212 55.52671107 21.89905144 54.203125 21.23828125 C53.60075012 20.92788406 52.99837524 20.61748688 52.37774658 20.29768372 C47.8074667 18.06103117 44.04693333 17.06323259 39 17 C34.81479864 19.42732717 33.87036617 23.66060512 32.41807556 28.03337097 C21.71871375 60.19300426 21.71871375 60.19300426 10.33770752 66.46783447 C-3.0045492 71.48668273 -18.27391605 70.81334397 -32.30453491 70.10803223 C-36.87031149 69.92503931 -41.43116204 69.97318296 -46 70 C-46 64.72 -46 59.44 -46 54 C-43.51984375 53.54109375 -41.0396875 53.0821875 -38.484375 52.609375 C-36.07755382 52.15298523 -33.6718143 51.69125735 -31.26611328 51.22900391 C-29.59692171 50.91123233 -27.9266657 50.59899898 -26.25537109 50.29248047 C-23.84950559 49.8502363 -21.4482048 49.38804242 -19.046875 48.921875 C-18.30193787 48.78940369 -17.55700073 48.65693237 -16.78948975 48.52044678 C-13.73841255 47.91128419 -11.2540721 47.16077349 -8.6171875 45.4921875 C-6.12475866 41.65119813 -5.72339652 37.68411729 -5.078125 33.203125 C-4.85355621 31.77996979 -4.85355621 31.77996979 -4.62445068 30.32806396 C-4.15090315 27.304195 -3.70019784 24.27742434 -3.25 21.25 C-2.93249027 19.196382 -2.61349704 17.14299278 -2.29296875 15.08984375 C-1.51142187 10.06238614 -0.75033898 5.03220595 0 0 Z " fill="#00B2D6" transform="translate(222,192)"/>
<path d="M0 0 C40.92 0 81.84 0 124 0 C120.01763801 1.99118099 116.14409772 3.16870744 111.875 4.3125 C110.23304286 4.76030649 108.59111656 5.20822603 106.94921875 5.65625 C105.70084229 5.99462891 105.70084229 5.99462891 104.42724609 6.33984375 C100.84284805 7.31471926 97.26538701 8.31404904 93.6875 9.3125 C88.21544287 10.83599839 82.73998933 12.34664521 77.26171875 13.84765625 C65.62624385 17.0395374 54.00700519 20.26337961 42.4375 23.6875 C34.26885861 26.10405359 26.07246772 28.28606432 17.79589844 30.29980469 C12.35396426 31.63220864 7.02940876 33.18943267 1.69140625 34.89453125 C-5.39524005 37.01677559 -12.57834046 38.79179327 -19.7421875 40.6328125 C-23.84894147 41.69067946 -27.92980887 42.80955413 -32 44 C-29.36642662 41.34204168 -26.71380053 38.71964628 -23.984375 36.16015625 C-12.49111409 25.2440293 -6.19845044 14.87628106 0 0 Z " fill="#93999A" transform="translate(181,400)"/>
<path d="M0 0 C41.06316941 -0.06863312 82.12633137 -0.121512 123.18954666 -0.15319599 C128.03497456 -0.15694821 132.88040235 -0.16083117 137.72583008 -0.16479492 C138.6904871 -0.16558185 139.65514412 -0.16636878 140.64903317 -0.16717956 C156.27850059 -0.18024144 171.90793499 -0.20389958 187.5373828 -0.23145839 C203.56889081 -0.25949085 219.60038149 -0.27617168 235.63191301 -0.28226548 C245.52806438 -0.28638641 255.42412241 -0.29941247 265.32024506 -0.3237494 C272.10195236 -0.33957994 278.88361124 -0.34440645 285.66533568 -0.34050413 C289.58085939 -0.3385784 293.49621973 -0.34157668 297.41171455 -0.35761642 C300.9950988 -0.3721888 304.57820941 -0.37296989 308.16160611 -0.36269668 C310.07464645 -0.360824 311.98768346 -0.37378669 313.90067738 -0.38724393 C315.0357694 -0.38127078 316.17086141 -0.37529764 317.34035015 -0.36914349 C318.31964888 -0.37028265 319.29894761 -0.37142181 320.30792207 -0.37259549 C323.59251244 0.08200634 325.42334237 0.91253017 328 3 C328.8125 5.6875 328.8125 5.6875 329 8 C288.86262579 8.0457695 248.72525498 8.08101518 208.5878599 8.10213066 C203.85015851 8.1046321 199.11245717 8.10722074 194.37475586 8.10986328 C192.95995872 8.11065021 192.95995872 8.11065021 191.51657981 8.11145304 C176.24089877 8.1201576 160.96523276 8.13592787 145.68956064 8.15430559 C130.0173858 8.1730032 114.34521884 8.18411643 98.6730333 8.18817699 C89.00108898 8.19092233 79.32918718 8.19959592 69.65725596 8.21583293 C63.02645111 8.22639809 56.39566827 8.22960168 49.76485562 8.22700275 C45.93823074 8.22572074 42.1116802 8.2276975 38.28506851 8.23841095 C34.13611818 8.24994202 29.98732635 8.24597806 25.83836365 8.24050903 C24.62921388 8.24633472 23.4200641 8.2521604 22.17427343 8.25816262 C12.94788809 8.22520247 6.8294915 7.49634557 0 1 C0 0.67 0 0.34 0 0 Z " fill="#E8F0F1" transform="translate(103,464)"/>
<path d="M0 0 C0.90862793 0.30510498 1.81725586 0.61020996 2.75341797 0.92456055 C4.52492363 1.51137679 6.29949067 2.09016961 8.08642578 2.62817383 C13.21482427 4.22515739 18.14475299 6.15276092 22 10 C24.84675982 15.4928034 25.12278306 21.88163091 25.68457031 27.94873047 C26.24389517 33.35928936 27.21476478 38.702045 28.125 44.0625 C28.36428223 45.60550781 28.36428223 45.60550781 28.60839844 47.1796875 C28.76083008 48.14261719 28.91326172 49.10554688 29.0703125 50.09765625 C29.20195801 50.94851807 29.33360352 51.79937988 29.46923828 52.67602539 C30.01880903 55.08235654 30.69343365 56.90689802 32 59 C34.53770003 60.28254644 34.53770003 60.28254644 37 61 C37 62.65 37 64.3 37 66 C17.51927087 62.45323682 -3.05842924 55.01144546 -19 43 C-20 40 -20 40 -19.36097717 38.12068176 C-19.00345871 37.41674789 -18.64594025 36.71281403 -18.27758789 35.98754883 C-17.87709732 35.18694534 -17.47660675 34.38634186 -17.0639801 33.56147766 C-16.62134323 32.70201035 -16.17870636 31.84254303 -15.72265625 30.95703125 C-15.2773204 30.0734343 -14.83198456 29.18983734 -14.37315369 28.27946472 C-12.94556534 25.45232467 -11.50424179 22.63244431 -10.0625 19.8125 C-9.09348976 17.89954988 -8.12537905 15.98614382 -7.15820312 14.07226562 C-4.7825565 9.37616561 -2.39558897 4.68595545 0 0 Z " fill="#E7EEEF" transform="translate(267,227)"/>
<path d="M0 0 C1.84451528 0.17639352 3.68750728 0.38918629 5.515625 0.69140625 C5.9075 1.64015625 6.299375 2.58890625 6.703125 3.56640625 C8.40689704 7.24418201 8.40689704 7.24418201 13.515625 8.69140625 C13.515625 13.97140625 13.515625 19.25140625 13.515625 24.69140625 C11.535625 25.68140625 9.555625 26.67140625 7.515625 27.69140625 C6.23732112 30.32626189 6.23732112 30.32626189 5.80859375 33.453125 C5.58864746 34.61376465 5.36870117 35.7744043 5.14208984 36.97021484 C4.93535645 38.19820801 4.72862305 39.42620117 4.515625 40.69140625 C4.28697754 41.90779785 4.05833008 43.12418945 3.82275391 44.37744141 C3.1296786 48.08180942 2.4739278 51.79102792 1.828125 55.50390625 C1.49071289 57.41913086 1.49071289 57.41913086 1.14648438 59.37304688 C0.59980629 62.47864365 0.05623417 65.58474834 -0.484375 68.69140625 C-1.474375 68.69140625 -2.464375 68.69140625 -3.484375 68.69140625 C-9.2321304 58.25603701 -14.40085895 47.89764537 -18.484375 36.69140625 C-18.86722656 35.70527344 -19.25007812 34.71914062 -19.64453125 33.703125 C-21.37431878 27.50002648 -20.71304866 23.67165756 -17.84375 17.9765625 C-16.65805418 15.89233156 -15.45429688 13.81829086 -14.234375 11.75390625 C-13.6671875 10.68849609 -13.1 9.62308594 -12.515625 8.52539062 C-9.06072156 2.66332076 -7.07662156 0.00728047 0 0 Z " fill="#E7EFF0" transform="translate(202.484375,151.30859375)"/>
<path d="M0 0 C38.03137458 -2.55244125 38.03137458 -2.55244125 47.11376953 4.45068359 C49.67224199 6.89504728 52.05464623 9.42323394 54.33203125 12.13134766 C57.06408241 15.19210871 60.2873287 17.55183106 63.5625 20 C69.51600698 24.58178455 69.51600698 24.58178455 72.328125 27.01171875 C77.14268747 31.07755989 80.75452822 31.46939639 87 31 C92.89192632 30.29116634 98.74604941 29.34522053 104.60742188 28.421875 C120.00887918 26.08705743 120.00887918 26.08705743 125 27 C126.76928711 28.51953125 126.76928711 28.51953125 128 30 C122.51676803 33.08504559 116.21837119 33.84893329 110.125 35.125 C108.8771875 35.40214844 107.629375 35.67929688 106.34375 35.96484375 C84.94755638 40.46114531 72.7387785 36.02151008 54.76953125 24.875 C53.18276822 23.91157433 51.59310274 22.95290586 50 22 C49.00250732 21.39744385 49.00250732 21.39744385 47.98486328 20.78271484 C42.55725697 17.76279194 37.36994491 17.19310728 31.25 16.625 C18.19859622 15.10525673 8.56673004 11.55723496 0 1 C0 0.67 0 0.34 0 0 Z " fill="#AAE6F2" transform="translate(239,112)"/>
<path d="M0 0 C5.28 0 10.56 0 16 0 C16.16276042 3.02734375 16.32552083 6.0546875 16.48828125 9.08203125 C17.15806341 14.21021066 18.5458179 19.04544601 20 24 C14.69902834 24.86048295 9.39711072 25.71478604 4.09423828 26.56347656 C2.29188429 26.85281118 0.4897962 27.14380741 -1.31201172 27.43652344 C-3.90784001 27.85793344 -6.50457833 28.27328057 -9.1015625 28.6875 C-9.9017984 28.81874268 -10.7020343 28.94998535 -11.52651978 29.08520508 C-12.66702286 29.26539185 -12.66702286 29.26539185 -13.83056641 29.44921875 C-14.82317978 29.60910278 -14.82317978 29.60910278 -15.83584595 29.7722168 C-18.54333397 30.0571874 -21.27755631 30 -24 30 C-24 22.74 -24 15.48 -24 8 C-15.25 7.625 -15.25 7.625 -12.51269531 7.52197266 C-11.79178711 7.4863623 -11.07087891 7.45075195 -10.328125 7.4140625 C-9.22839355 7.36693115 -9.22839355 7.36693115 -8.10644531 7.31884766 C-5.61543715 6.94178963 -4.07819001 6.44181956 -2 5 C-1.34 3.35 -0.68 1.7 0 0 Z " fill="#E7EFF0" transform="translate(200,72)"/>
<path d="M0 0 C10.56 0 21.12 0 32 0 C32.061875 3.17625 32.12375 6.3525 32.1875 9.625 C32.22846802 11.1092749 32.22846802 11.1092749 32.27026367 12.62353516 C32.32674429 18.63234406 31.71632298 23.02194798 27.5 27.64453125 C22.09279135 31.85483174 17.72106323 32.82862423 11 32 C5.6964772 29.29820537 1.90167702 25.70503105 0 20 C-0.08106686 18.44578271 -0.10756898 16.88832973 -0.09765625 15.33203125 C-0.09515869 14.52741455 -0.09266113 13.72279785 -0.09008789 12.89379883 C-0.08098389 11.87697021 -0.07187988 10.8601416 -0.0625 9.8125 C-0.041875 6.574375 -0.02125 3.33625 0 0 Z " fill="#FEE800" transform="translate(232,64)"/>
<path d="M0 0 C1.94600457 1.91738685 3.7260046 3.8109781 5.5 5.875 C11.50894656 12.98401567 11.50894656 12.98401567 20 16 C20 16.33 20 16.66 20 17 C13.36634221 17.72026309 6.73174174 18.4313161 0.09643555 19.13623047 C-2.15671683 19.37666569 -4.40965237 19.6191427 -6.66235352 19.86376953 C-9.91626824 20.2167512 -13.17091412 20.5621748 -16.42578125 20.90625 C-17.41894852 21.0156189 -18.41211578 21.12498779 -19.43537903 21.2376709 C-25.99228235 21.92127268 -32.40711512 22.09435256 -39 22 C-39 16.72 -39 11.44 -39 6 C-34.09014108 4.97668741 -29.17978212 3.9587787 -24.26611328 2.9543457 C-22.59522013 2.61112032 -20.92496176 2.26478941 -19.25537109 1.9152832 C-16.85414552 1.41318279 -14.45085187 0.92232829 -12.046875 0.43359375 C-10.9294693 0.19617714 -10.9294693 0.19617714 -9.78948975 -0.04603577 C-3.0713854 -1.39096065 -3.0713854 -1.39096065 0 0 Z " fill="#0194C3" transform="translate(215,240)"/>
<path d="M0 0 C0.80232056 -0.00004028 1.60464111 -0.00008057 2.43127441 -0.00012207 C4.12239443 0.00522359 5.8135146 0.02276578 7.50439453 0.05175781 C10.08573724 0.09362006 12.66446867 0.09282315 15.24609375 0.0859375 C16.89324721 0.09643096 18.54038728 0.10936992 20.1875 0.125 C21.3392572 0.12530212 21.3392572 0.12530212 22.51428223 0.12561035 C27.02599744 0.22473308 30.01087988 0.78722566 33.59375 3.59375 C34.99832737 6.40290474 34.84270157 8.48185534 34.59375 11.59375 C32.81390595 14.7296657 32.07066793 15.43477736 28.59375 16.59375 C23.34255951 16.87064497 18.09179115 16.90714221 12.83398438 16.94384766 C11.09393955 16.96041642 9.35396305 16.98771889 7.61425781 17.02587891 C5.09925214 17.08071881 2.58583593 17.1025286 0.0703125 17.1171875 C-0.70379974 17.13985687 -1.47791199 17.16252625 -2.27548218 17.18588257 C-6.32165937 17.17010093 -8.17461313 16.77539113 -11.39697266 14.24853516 C-13.40625 11.59375 -13.40625 11.59375 -14.03125 8.59375 C-12.4447375 0.97849 -6.89259428 -0.14717412 0 0 Z " fill="#333434" transform="translate(61.40625,215.40625)"/>
<path d="M0 0 C5.07640059 1.67385042 9.17430445 4.64030591 13.546875 7.62890625 C14.35868225 8.1786058 15.1704895 8.72830536 16.00689697 9.29466248 C18.59095568 11.04619855 21.17041148 12.80438902 23.75 14.5625 C25.50102438 15.74975863 27.25232346 16.93661223 29.00390625 18.12304688 C30.66430879 19.2496371 32.32447345 20.376578 33.984375 21.50390625 C34.77285828 22.03931534 35.56134155 22.57472443 36.37371826 23.12635803 C37.09827209 23.62034592 37.82282593 24.1143338 38.56933594 24.62329102 C39.20933533 25.05916031 39.84933472 25.4950296 40.50872803 25.94410706 C42.94294968 27.66765415 42.94294968 27.66765415 43.38891602 30.265625 C43.78568213 33.50981829 44.18008857 36.75407714 44.5625 40 C44.77036133 41.66869141 44.77036133 41.66869141 44.98242188 43.37109375 C45.73089438 49.631716 46.15359914 55.69575697 46 62 C40.25361487 56.89210211 37.57841349 51.39344293 35.625 44 C32.97338339 34.80396794 27.20306952 29.5447752 19 25 C16.94051814 24.03519769 14.877895 23.07707799 12.8125 22.125 C7.26741488 19.444404 3.92599755 16.42408241 1 11 C-0.28317892 7.15046324 -0.06643637 4.05261865 0 0 Z " fill="#46C7E0" transform="translate(278,193)"/>
<path d="M0 0 C0.80232056 -0.00004028 1.60464111 -0.00008057 2.43127441 -0.00012207 C4.12239443 0.00522359 5.8135146 0.02276578 7.50439453 0.05175781 C10.08573724 0.09362006 12.66446867 0.09282315 15.24609375 0.0859375 C16.89324721 0.09643096 18.54038728 0.10936992 20.1875 0.125 C21.3392572 0.12530212 21.3392572 0.12530212 22.51428223 0.12561035 C27.02599744 0.22473308 30.01087988 0.78722566 33.59375 3.59375 C34.99832737 6.40290474 34.84270157 8.48185534 34.59375 11.59375 C32.81390595 14.7296657 32.07066793 15.43477736 28.59375 16.59375 C23.34255951 16.87064497 18.09179115 16.90714221 12.83398438 16.94384766 C11.09393955 16.96041642 9.35396305 16.98771889 7.61425781 17.02587891 C5.09925214 17.08071881 2.58583593 17.1025286 0.0703125 17.1171875 C-0.70379974 17.13985687 -1.47791199 17.16252625 -2.27548218 17.18588257 C-6.32165937 17.17010093 -8.17461313 16.77539113 -11.39697266 14.24853516 C-13.40625 11.59375 -13.40625 11.59375 -14.03125 8.59375 C-12.4447375 0.97849 -6.89259428 -0.14717412 0 0 Z " fill="#333434" transform="translate(61.40625,183.40625)"/>
<path d="M0 0 C0.80232056 -0.00004028 1.60464111 -0.00008057 2.43127441 -0.00012207 C4.12239443 0.00522359 5.8135146 0.02276578 7.50439453 0.05175781 C10.08573724 0.09362006 12.66446867 0.09282315 15.24609375 0.0859375 C16.89324721 0.09643096 18.54038728 0.10936992 20.1875 0.125 C21.3392572 0.12530212 21.3392572 0.12530212 22.51428223 0.12561035 C27.02599744 0.22473308 30.01087988 0.78722566 33.59375 3.59375 C34.99832737 6.40290474 34.84270157 8.48185534 34.59375 11.59375 C32.81390595 14.7296657 32.07066793 15.43477736 28.59375 16.59375 C23.34255951 16.87064497 18.09179115 16.90714221 12.83398438 16.94384766 C11.09393955 16.96041642 9.35396305 16.98771889 7.61425781 17.02587891 C5.09925214 17.08071881 2.58583593 17.1025286 0.0703125 17.1171875 C-0.70379974 17.13985687 -1.47791199 17.16252625 -2.27548218 17.18588257 C-6.32165937 17.17010093 -8.17461313 16.77539113 -11.39697266 14.24853516 C-13.40625 11.59375 -13.40625 11.59375 -14.03125 8.59375 C-12.4447375 0.97849 -6.89259428 -0.14717412 0 0 Z " fill="#333434" transform="translate(61.40625,151.40625)"/>
<path d="M0 0 C4.12670505 -0.09238892 8.25073905 -0.17184732 12.37792969 -0.21972656 C13.77844473 -0.2397063 15.17887782 -0.2669002 16.57910156 -0.30175781 C26.16838167 -0.53430811 33.16770452 -0.30283101 40.53125 6.25390625 C41.50578125 7.39666016 41.50578125 7.39666016 42.5 8.5625 C43.1703125 9.32691406 43.840625 10.09132813 44.53125 10.87890625 C46 13 46 13 46 16 C30.82 16 15.64 16 0 16 C0 10.72 0 5.44 0 0 Z " fill="#FECF00" transform="translate(304,288)"/>
<path d="M0 0 C1.26972656 0.00257813 2.53945313 0.00515625 3.84765625 0.0078125 C5.16636719 0.03617188 6.48507813 0.06453125 7.84375 0.09375 C9.16246094 0.09117187 10.48117188 0.08859375 11.83984375 0.0859375 C22.77449158 0.19694915 22.77449158 0.19694915 27.34375 3.59375 C28.74832737 6.40290474 28.59270157 8.48185534 28.34375 11.59375 C26.56390595 14.7296657 25.82066793 15.43477736 22.34375 16.59375 C18.23251683 16.86499388 14.12143728 16.90688817 10.00195312 16.94384766 C8.64989001 16.96040751 7.29791446 16.98769924 5.94628906 17.02587891 C3.98816461 17.08082871 2.0291272 17.099416 0.0703125 17.1171875 C-1.09935059 17.13700684 -2.26901367 17.15682617 -3.47412109 17.17724609 C-7.60762496 16.41929963 -9.07026796 14.83412437 -11.65625 11.59375 C-12.28125 8.59375 -12.28125 8.59375 -11.65625 5.59375 C-8.02251354 1.05742951 -5.77097589 -0.03536531 0 0 Z " fill="#343434" transform="translate(59.65625,247.40625)"/>
<path d="M0 0 C0.66 0 1.32 0 2 0 C5.13081494 36.78554981 5.13081494 36.78554981 -4.58203125 49.31640625 C-8.7810509 53.97670754 -8.7810509 53.97670754 -11.9375 54.3125 C-15 54 -15 54 -16.9375 53 C-18.94652635 49.21830334 -17.48865274 44.60921235 -16.29223633 40.66921997 C-15.38513269 38.11578255 -14.42387564 35.59027252 -13.4375 33.06640625 C-13.0861499 32.14786362 -12.7347998 31.22932098 -12.37280273 30.28294373 C-11.63390565 28.3560456 -10.89075224 26.43077473 -10.14355469 24.50708008 C-8.99534043 21.55050191 -7.85986982 18.5892735 -6.7265625 15.62695312 C-6.00593676 13.75232399 -5.28460774 11.87796502 -4.5625 10.00390625 C-4.22081787 9.11546524 -3.87913574 8.22702423 -3.52709961 7.31166077 C-3.2100708 6.49668625 -2.89304199 5.68171173 -2.56640625 4.84204102 C-2.28740479 4.12226578 -2.00840332 3.40249054 -1.72094727 2.66090393 C-1 1 -1 1 0 0 Z " fill="#01B0D3" transform="translate(174,119)"/>
<path d="M0 0 C5.28 0 10.56 0 16 0 C16.08159761 3.16719629 16.14078461 6.33225152 16.1875 9.5 C16.21263672 10.386875 16.23777344 11.27375 16.26367188 12.1875 C16.35050543 20.06040909 15.05387038 26.40702525 9.5 32.375 C8.61828125 33.34566406 8.61828125 33.34566406 7.71875 34.3359375 C5.12020527 36.85180126 3.68087363 38 0 38 C0 25.46 0 12.92 0 0 Z " fill="#FDB600" transform="translate(144,248)"/>
<path d="M0 0 C0.93714844 -0.00257813 1.87429687 -0.00515625 2.83984375 -0.0078125 C7.80437377 0.06260637 11.52949427 0.18039685 15.5 3.5 C16.90457737 6.30915474 16.74895157 8.38810534 16.5 11.5 C14.72015595 14.6359157 13.97691793 15.34102736 10.5 16.5 C7.04690178 16.8042547 3.58992872 16.8234943 0.125 16.875 C-0.82117187 16.91238281 -1.76734375 16.94976562 -2.7421875 16.98828125 C-7.46883931 17.04802825 -9.74297641 17.06587514 -13.625 14.1640625 C-15.5 11.5 -15.5 11.5 -16.125 8.5 C-14.28929376 -0.31138993 -7.47902301 -0.22632532 0 0 Z " fill="#353535" transform="translate(63.5,279.5)"/>
<path d="M0 0 C0 5.28 0 10.56 0 16 C-9.9 16 -19.8 16 -30 16 C-28.41938183 9.67752734 -24.02480223 4.8716479 -18.4375 1.5 C-12.66109315 -1.1079619 -6.17159759 -0.23736914 0 0 Z " fill="#919798" transform="translate(264,32)"/>
<path d="M0 0 C4.29 0 8.58 0 13 0 C11.68 1.65 10.36 3.3 9 5 C7.70293633 10.31223869 8.97549806 15.38309004 11.5859375 20.078125 C14.20232833 23.63410369 17.57584569 26.25771192 21 29 C21.66 29.66 22.32 30.32 23 31 C18.92952653 32.35682449 15.25608283 32.52472254 11 32 C5.6964772 29.29820537 1.90167702 25.70503105 0 20 C-0.08106686 18.44578271 -0.10756898 16.88832973 -0.09765625 15.33203125 C-0.09443359 14.43935547 -0.09121094 13.54667969 -0.08789062 12.62695312 C-0.07951172 11.69818359 -0.07113281 10.76941406 -0.0625 9.8125 C-0.05798828 8.87212891 -0.05347656 7.93175781 -0.04882812 6.96289062 C-0.03704645 4.64189992 -0.01911114 2.32094193 0 0 Z " fill="#FBCD00" transform="translate(232,64)"/>
<path d="M0 0 C4.12582397 -0.09969463 8.25117097 -0.17185233 12.37792969 -0.21972656 C13.77844473 -0.2397063 15.17887782 -0.2669002 16.57910156 -0.30175781 C31.28916454 -0.65849258 31.28916454 -0.65849258 38 4 C39.03723259 5.30457899 40.04591522 6.63343496 41 8 C26.97450119 8.34536839 13.71266715 8.13006533 0 5 C0 3.35 0 1.7 0 0 Z " fill="#FCE700" transform="translate(304,288)"/>
<path d="M0 0 C5.28 0 10.56 0 16 0 C16 5.28 16 10.56 16 16 C10.72 16 5.44 16 0 16 C0 10.72 0 5.44 0 0 Z " fill="#FF7373" transform="translate(432,280)"/>
<path d="M0 0 C5.28 0 10.56 0 16 0 C16 5.28 16 10.56 16 16 C10.72 16 5.44 16 0 16 C0 10.72 0 5.44 0 0 Z " fill="#EF5350" transform="translate(432,248)"/>
<path d="M0 0 C5.28 0 10.56 0 16 0 C16 5.28 16 10.56 16 16 C10.72 16 5.44 16 0 16 C0 10.72 0 5.44 0 0 Z " fill="#E53935" transform="translate(432,216)"/>
<path d="M0 0 C5.28 0 10.56 0 16 0 C16 5.28 16 10.56 16 16 C10.72 16 5.44 16 0 16 C0 10.72 0 5.44 0 0 Z " fill="#C62828" transform="translate(432,184)"/>
<path d="M0 0 C2.66589042 0.54323805 3.75768995 0.96351964 5.875 2.75 C7.21538506 5.84964046 7.42167869 7.71409302 6.875 11.0625 C4.41905875 14.38524404 2.9493356 15.83868008 -1.125 16.6875 C-5.1993356 15.83868008 -6.66905875 14.38524404 -9.125 11.0625 C-9.75 8.0625 -9.75 8.0625 -9.125 5.0625 C-6.50620524 1.2161452 -4.62486834 -0.35838463 0 0 Z " fill="#46C4DE" transform="translate(177.125,335.9375)"/>
<path d="M0 0 C0.65355469 0.58007812 0.65355469 0.58007812 1.3203125 1.171875 C5.04999544 4.43332935 8.80975473 7.33348029 13 10 C13.99 10.66 14.98 11.32 16 12 C8.08 12 0.16 12 -8 12 C-6.9814744 7.92589762 -6.17407101 6.73535019 -3.4375 3.75 C-2.79683594 3.04359375 -2.15617188 2.3371875 -1.49609375 1.609375 C-0.75552734 0.81273437 -0.75552734 0.81273437 0 0 Z " fill="#656B76" transform="translate(242,36)"/>
<path d="M0 0 C0.556875 0.7425 1.11375 1.485 1.6875 2.25 C3.93727787 4.92541152 6.2309174 6.88675275 9 9 C9.66 9.66 10.32 10.32 11 11 C6.98313013 11.46707789 5.43498188 11.32150834 2.125 8.875 C-0.32150834 5.56501812 -0.46707789 4.01686987 0 0 Z " fill="#05A8C8" transform="translate(168,341)"/>
</svg>
